<svg width="1443" height="700" viewBox="0 0 1443 700" fill="none" xmlns="http://www.w3.org/2000/svg">
<path d="M1352 655.038C1353.1 655.038 1354 654.333 1354 653.463C1354 652.594 1353.1 651.889 1352 651.889C1350.9 651.889 1350 652.594 1350 653.463C1350 654.333 1350.9 655.038 1352 655.038Z" fill="white" fill-opacity="0.05"/>
<path d="M1387 431.443C1388.1 431.443 1389 430.738 1389 429.869C1389 428.999 1388.1 428.294 1387 428.294C1385.9 428.294 1385 428.999 1385 429.869C1385 430.738 1385.9 431.443 1387 431.443Z" fill="white" fill-opacity="0.15"/>
<path d="M1387 484.193C1388.1 484.193 1389 483.488 1389 482.618C1389 481.748 1388.1 481.043 1387 481.043C1385.9 481.043 1385 481.748 1385 482.618C1385 483.488 1385.9 484.193 1387 484.193Z" fill="white" fill-opacity="0.1"/>
<path d="M988 461.361C989.105 461.361 990 460.656 990 459.786C990 458.916 989.105 458.211 988 458.211C986.895 458.211 986 458.916 986 459.786C986 460.656 986.895 461.361 988 461.361Z" fill="white" fill-opacity="0.1"/>
<path d="M588 182.655C589.105 182.655 590 181.95 590 181.08C590 180.211 589.105 179.506 588 179.506C586.895 179.506 586 180.211 586 181.08C586 181.95 586.895 182.655 588 182.655Z" fill="white" fill-opacity="0.1"/>
<path d="M577 692.828C578.105 692.828 579 692.123 579 691.254C579 690.384 578.105 689.679 577 689.679C575.895 689.679 575 690.384 575 691.254C575 692.123 575.895 692.828 577 692.828Z" fill="white" fill-opacity="0.15"/>
<path d="M431 236.979C432.105 236.979 433 236.274 433 235.404C433 234.535 432.105 233.83 431 233.83C429.895 233.83 429 234.535 429 235.404C429 236.274 429.895 236.979 431 236.979Z" fill="white" fill-opacity="0.25"/>
<path d="M1414 288.154C1415.1 288.154 1416 287.449 1416 286.579C1416 285.709 1415.1 285.004 1414 285.004C1412.9 285.004 1412 285.709 1412 286.579C1412 287.449 1412.9 288.154 1414 288.154Z" fill="white" fill-opacity="0.1"/>
<path d="M1287 244.065C1288.1 244.065 1289 243.36 1289 242.49C1289 241.621 1288.1 240.916 1287 240.916C1285.9 240.916 1285 241.621 1285 242.49C1285 243.36 1285.9 244.065 1287 244.065Z" fill="white"/>
<path d="M279 114.947C280.105 114.947 281 114.242 281 113.372C281 112.502 280.105 111.797 279 111.797C277.895 111.797 277 112.502 277 113.372C277 114.242 277.895 114.947 279 114.947Z" fill="white" fill-opacity="0.25"/>
<path d="M318 548.752C319.105 548.752 320 548.047 320 547.177C320 546.308 319.105 545.603 318 545.603C316.895 545.603 316 546.308 316 547.177C316 548.047 316.895 548.752 318 548.752Z" fill="white" fill-opacity="0.1"/>
<path d="M502 586.542C503.105 586.542 504 585.837 504 584.968C504 584.098 503.105 583.393 502 583.393C500.895 583.393 500 584.098 500 584.968C500 585.837 500.895 586.542 502 586.542Z" fill="white" fill-opacity="0.05"/>
<path d="M775 605.438C776.105 605.438 777 604.733 777 603.863C777 602.994 776.105 602.289 775 602.289C773.895 602.289 773 602.994 773 603.863C773 604.733 773.895 605.438 775 605.438Z" fill="white" fill-opacity="0.1"/>
<path d="M1204 406.249C1205.1 406.249 1206 405.544 1206 404.675C1206 403.805 1205.1 403.1 1204 403.1C1202.9 403.1 1202 403.805 1202 404.675C1202 405.544 1202.9 406.249 1204 406.249Z" fill="white" fill-opacity="0.05"/>
<path d="M54 154.312C55.1046 154.312 56 153.607 56 152.737C56 151.868 55.1046 151.163 54 151.163C52.8954 151.163 52 151.868 52 152.737C52 153.607 52.8954 154.312 54 154.312Z" fill="white" fill-opacity="0.05"/>
<path d="M1085 460.574C1086.1 460.574 1087 459.869 1087 458.999C1087 458.129 1086.1 457.424 1085 457.424C1083.9 457.424 1083 458.129 1083 458.999C1083 459.869 1083.9 460.574 1085 460.574Z" fill="white" fill-opacity="0.25"/>
<path d="M470 235.404C471.105 235.404 472 234.699 472 233.829C472 232.96 471.105 232.255 470 232.255C468.895 232.255 468 232.96 468 233.829C468 234.699 468.895 235.404 470 235.404Z" fill="white" fill-opacity="0.15"/>
<path d="M333 199.188C334.105 199.188 335 198.483 335 197.614C335 196.744 334.105 196.039 333 196.039C331.895 196.039 331 196.744 331 197.614C331 198.483 331.895 199.188 333 199.188Z" fill="white" fill-opacity="0.15"/>
<path d="M1328 636.93C1329.1 636.93 1330 636.225 1330 635.355C1330 634.486 1329.1 633.781 1328 633.781C1326.9 633.781 1326 634.486 1326 635.355C1326 636.225 1326.9 636.93 1328 636.93Z" fill="white" fill-opacity="0.05"/>
<path d="M664 273.195C665.105 273.195 666 272.49 666 271.621C666 270.751 665.105 270.046 664 270.046C662.895 270.046 662 270.751 662 271.621C662 272.49 662.895 273.195 664 273.195Z" fill="white" fill-opacity="0.25"/>
<path d="M1243 6.29863C1244.1 6.29863 1245 5.59366 1245 4.72402C1245 3.85439 1244.1 3.14941 1243 3.14941C1241.9 3.14941 1241 3.85439 1241 4.72402C1241 5.59366 1241.9 6.29863 1243 6.29863Z" fill="white" fill-opacity="0.25"/>
<path d="M527 266.109C528.105 266.109 529 265.404 529 264.535C529 263.665 528.105 262.96 527 262.96C525.895 262.96 525 263.665 525 264.535C525 265.404 525.895 266.109 527 266.109Z" fill="white" fill-opacity="0.05"/>
<path d="M502 256.661C503.105 256.661 504 255.956 504 255.087C504 254.217 503.105 253.512 502 253.512C500.895 253.512 500 254.217 500 255.087C500 255.956 500.895 256.661 502 256.661Z" fill="white" fill-opacity="0.1"/>
<path d="M483 593.628C484.105 593.628 485 592.923 485 592.054C485 591.184 484.105 590.479 483 590.479C481.895 590.479 481 591.184 481 592.054C481 592.923 481.895 593.628 483 593.628Z" fill="white" fill-opacity="0.25"/>
<path d="M1339 603.863C1340.1 603.863 1341 603.158 1341 602.288C1341 601.419 1340.1 600.714 1339 600.714C1337.9 600.714 1337 601.419 1337 602.288C1337 603.158 1337.9 603.863 1339 603.863Z" fill="white" fill-opacity="0.1"/>
<path d="M1311 30.7049C1312.1 30.7049 1313 29.9999 1313 29.1303C1313 28.2606 1312.1 27.5557 1311 27.5557C1309.9 27.5557 1309 28.2606 1309 29.1303C1309 29.9999 1309.9 30.7049 1311 30.7049Z" fill="white" fill-opacity="0.25"/>
<path d="M1064 155.887C1065.1 155.887 1066 155.182 1066 154.312C1066 153.442 1065.1 152.737 1064 152.737C1062.9 152.737 1062 153.442 1062 154.312C1062 155.182 1062.9 155.887 1064 155.887Z" fill="white" fill-opacity="0.15"/>
<path d="M1032 320.433C1033.1 320.433 1034 319.728 1034 318.859C1034 317.989 1033.1 317.284 1032 317.284C1030.9 317.284 1030 317.989 1030 318.859C1030 319.728 1030.9 320.433 1032 320.433Z" fill="white" fill-opacity="0.05"/>
<path d="M997 545.602C998.105 545.602 999 544.897 999 544.028C999 543.158 998.105 542.453 997 542.453C995.895 542.453 995 543.158 995 544.028C995 544.897 995.895 545.602 997 545.602Z" fill="white"/>
<path d="M1208 664.486C1209.1 664.486 1210 663.781 1210 662.911C1210 662.041 1209.1 661.336 1208 661.336C1206.9 661.336 1206 662.041 1206 662.911C1206 663.781 1206.9 664.486 1208 664.486Z" fill="white" fill-opacity="0.25"/>
<path d="M329 684.168C330.105 684.168 331 683.463 331 682.594C331 681.724 330.105 681.019 329 681.019C327.895 681.019 327 681.724 327 682.594C327 683.463 327.895 684.168 329 684.168Z" fill="white" fill-opacity="0.05"/>
<path d="M1094 526.707C1095.1 526.707 1096 526.002 1096 525.133C1096 524.263 1095.1 523.558 1094 523.558C1092.9 523.558 1092 524.263 1092 525.133C1092 526.002 1092.9 526.707 1094 526.707Z" fill="white" fill-opacity="0.25"/>
<path d="M749 144.864C750.105 144.864 751 144.159 751 143.289C751 142.42 750.105 141.715 749 141.715C747.895 141.715 747 142.42 747 143.289C747 144.159 747.895 144.864 749 144.864Z" fill="white" fill-opacity="0.05"/>
<path d="M429 62.9847C430.105 62.9847 431 62.2797 431 61.4101C431 60.5404 430.105 59.8354 429 59.8354C427.895 59.8354 427 60.5404 427 61.4101C427 62.2797 427.895 62.9847 429 62.9847Z" fill="white" fill-opacity="0.05"/>
<path d="M570 124.394C571.105 124.394 572 123.689 572 122.82C572 121.95 571.105 121.245 570 121.245C568.895 121.245 568 121.95 568 122.82C568 123.689 568.895 124.394 570 124.394Z" fill="white" fill-opacity="0.1"/>
<path d="M734 522.771C735.105 522.771 736 522.066 736 521.196C736 520.327 735.105 519.622 734 519.622C732.895 519.622 732 520.327 732 521.196C732 522.066 732.895 522.771 734 522.771Z" fill="white" fill-opacity="0.1"/>
<path d="M1088 558.2C1089.1 558.2 1090 557.495 1090 556.625C1090 555.755 1089.1 555.05 1088 555.05C1086.9 555.05 1086 555.755 1086 556.625C1086 557.495 1086.9 558.2 1088 558.2Z" fill="white" fill-opacity="0.25"/>
<path d="M1033 66.1336C1034.1 66.1336 1035 65.4286 1035 64.559C1035 63.6894 1034.1 62.9844 1033 62.9844C1031.9 62.9844 1031 63.6894 1031 64.559C1031 65.4286 1031.9 66.1336 1033 66.1336Z" fill="white" fill-opacity="0.15"/>
<path d="M667 587.33C668.105 587.33 669 586.625 669 585.755C669 584.886 668.105 584.181 667 584.181C665.895 584.181 665 584.886 665 585.755C665 586.625 665.895 587.33 667 587.33Z" fill="white" fill-opacity="0.25"/>
<path d="M80 193.677C81.1046 193.677 82 192.972 82 192.102C82 191.233 81.1046 190.528 80 190.528C78.8954 190.528 78 191.233 78 192.102C78 192.972 78.8954 193.677 80 193.677Z" fill="white" fill-opacity="0.05"/>
<path d="M290 343.265C291.105 343.265 292 342.56 292 341.69C292 340.821 291.105 340.116 290 340.116C288.895 340.116 288 340.821 288 341.69C288 342.56 288.895 343.265 290 343.265Z" fill="white" fill-opacity="0.1"/>
<path d="M1103 608.587C1104.1 608.587 1105 607.882 1105 607.013C1105 606.143 1104.1 605.438 1103 605.438C1101.9 605.438 1101 606.143 1101 607.013C1101 607.882 1101.9 608.587 1103 608.587Z" fill="white" fill-opacity="0.25"/>
<path d="M1372 230.68C1373.1 230.68 1374 229.975 1374 229.106C1374 228.236 1373.1 227.531 1372 227.531C1370.9 227.531 1370 228.236 1370 229.106C1370 229.975 1370.9 230.68 1372 230.68Z" fill="white" fill-opacity="0.05"/>
<path d="M514 552.688C515.105 552.688 516 551.983 516 551.114C516 550.244 515.105 549.539 514 549.539C512.895 549.539 512 550.244 512 551.114C512 551.983 512.895 552.688 514 552.688Z" fill="white" fill-opacity="0.05"/>
<path d="M470 688.105C471.105 688.105 472 687.4 472 686.53C472 685.661 471.105 684.956 470 684.956C468.895 684.956 468 685.661 468 686.53C468 687.4 468.895 688.105 470 688.105Z" fill="white"/>
<path d="M389 462.935C390.105 462.935 391 462.23 391 461.361C391 460.491 390.105 459.786 389 459.786C387.895 459.786 387 460.491 387 461.361C387 462.23 387.895 462.935 389 462.935Z" fill="white" fill-opacity="0.05"/>
<path d="M161 554.263C162.105 554.263 163 553.558 163 552.688C163 551.819 162.105 551.114 161 551.114C159.895 551.114 159 551.819 159 552.688C159 553.558 159.895 554.263 161 554.263Z" fill="white" fill-opacity="0.05"/>
<path d="M734 520.409C735.105 520.409 736 519.704 736 518.834C736 517.965 735.105 517.26 734 517.26C732.895 517.26 732 517.965 732 518.834C732 519.704 732.895 520.409 734 520.409Z" fill="white" fill-opacity="0.05"/>
<path d="M978 603.076C979.105 603.076 980 602.371 980 601.501C980 600.632 979.105 599.927 978 599.927C976.895 599.927 976 600.632 976 601.501C976 602.371 976.895 603.076 978 603.076Z" fill="white"/>
<path d="M1408 689.679C1409.1 689.679 1410 688.975 1410 688.105C1410 687.235 1409.1 686.53 1408 686.53C1406.9 686.53 1406 687.235 1406 688.105C1406 688.975 1406.9 689.679 1408 689.679Z" fill="white" fill-opacity="0.1"/>
<path d="M874 193.677C875.105 193.677 876 192.972 876 192.102C876 191.233 875.105 190.528 874 190.528C872.895 190.528 872 191.233 872 192.102C872 192.972 872.895 193.677 874 193.677Z" fill="white" fill-opacity="0.25"/>
<path d="M352 602.288C353.105 602.288 354 601.583 354 600.714C354 599.844 353.105 599.139 352 599.139C350.895 599.139 350 599.844 350 600.714C350 601.583 350.895 602.288 352 602.288Z" fill="white"/>
<path d="M441 415.697C442.105 415.697 443 414.992 443 414.122C443 413.253 442.105 412.548 441 412.548C439.895 412.548 439 413.253 439 414.122C439 414.992 439.895 415.697 441 415.697Z" fill="white"/>
<path d="M1294 11.8099C1295.1 11.8099 1296 11.1049 1296 10.2353C1296 9.36562 1295.1 8.66064 1294 8.66064C1292.9 8.66064 1292 9.36562 1292 10.2353C1292 11.1049 1292.9 11.8099 1294 11.8099Z" fill="white" fill-opacity="0.1"/>
<path d="M2 619.609C3.10457 619.609 4 618.904 4 618.035C4 617.165 3.10457 616.46 2 616.46C0.89543 616.46 0 617.165 0 618.035C0 618.904 0.89543 619.609 2 619.609Z" fill="white"/>
<path d="M1009 699.127C1010.1 699.127 1011 698.422 1011 697.553C1011 696.683 1010.1 695.978 1009 695.978C1007.9 695.978 1007 696.683 1007 697.553C1007 698.422 1007.9 699.127 1009 699.127Z" fill="white" fill-opacity="0.15"/>
<path d="M543 282.643C544.105 282.643 545 281.938 545 281.068C545 280.199 544.105 279.494 543 279.494C541.895 279.494 541 280.199 541 281.068C541 281.938 541.895 282.643 543 282.643Z" fill="white" fill-opacity="0.1"/>
<path d="M985 588.905C986.105 588.905 987 588.2 987 587.33C987 586.46 986.105 585.755 985 585.755C983.895 585.755 983 586.46 983 587.33C983 588.2 983.895 588.905 985 588.905Z" fill="white" fill-opacity="0.05"/>
<path d="M874 72.4319C875.105 72.4319 876 71.727 876 70.8573C876 69.9877 875.105 69.2827 874 69.2827C872.895 69.2827 872 69.9877 872 70.8573C872 71.727 872.895 72.4319 874 72.4319Z" fill="white" fill-opacity="0.25"/>
<path d="M946 3.14922C947.105 3.14922 948 2.44424 948 1.57461C948 0.704977 947.105 0 946 0C944.895 0 944 0.704977 944 1.57461C944 2.44424 944.895 3.14922 946 3.14922Z" fill="white" fill-opacity="0.25"/>
<path d="M559 573.158C560.105 573.158 561 572.454 561 571.584C561 570.714 560.105 570.009 559 570.009C557.895 570.009 557 570.714 557 571.584C557 572.454 557.895 573.158 559 573.158Z" fill="white" fill-opacity="0.05"/>
<path d="M1278 334.605C1279.1 334.605 1280 333.9 1280 333.03C1280 332.161 1279.1 331.456 1278 331.456C1276.9 331.456 1276 332.161 1276 333.03C1276 333.9 1276.9 334.605 1278 334.605Z" fill="white" fill-opacity="0.25"/>
<path d="M69 17.3206C70.1046 17.3206 71 16.6156 71 15.746C71 14.8764 70.1046 14.1714 69 14.1714C67.8954 14.1714 67 14.8764 67 15.746C67 16.6156 67.8954 17.3206 69 17.3206Z" fill="white" fill-opacity="0.25"/>
<path d="M133 425.932C134.105 425.932 135 425.227 135 424.357C135 423.488 134.105 422.783 133 422.783C131.895 422.783 131 423.488 131 424.357C131 425.227 131.895 425.932 133 425.932Z" fill="white" fill-opacity="0.05"/>
<path d="M1154 185.017C1155.1 185.017 1156 184.312 1156 183.442C1156 182.573 1155.1 181.868 1154 181.868C1152.9 181.868 1152 182.573 1152 183.442C1152 184.312 1152.9 185.017 1154 185.017Z" fill="white" fill-opacity="0.25"/>
<path d="M585 114.947C586.105 114.947 587 114.242 587 113.372C587 112.502 586.105 111.797 585 111.797C583.895 111.797 583 112.502 583 113.372C583 114.242 583.895 114.947 585 114.947Z" fill="white" fill-opacity="0.15"/>
<path d="M1189 80.305C1190.1 80.305 1191 79.6 1191 78.7304C1191 77.8607 1190.1 77.1558 1189 77.1558C1187.9 77.1558 1187 77.8607 1187 78.7304C1187 79.6 1187.9 80.305 1189 80.305Z" fill="white" fill-opacity="0.05"/>
<path d="M1137 551.114C1138.1 551.114 1139 550.409 1139 549.539C1139 548.669 1138.1 547.964 1137 547.964C1135.9 547.964 1135 548.669 1135 549.539C1135 550.409 1135.9 551.114 1137 551.114Z" fill="white" fill-opacity="0.15"/>
<path d="M1194 54.324C1195.1 54.324 1196 53.619 1196 52.7494C1196 51.8798 1195.1 51.1748 1194 51.1748C1192.9 51.1748 1192 51.8798 1192 52.7494C1192 53.619 1192.9 54.324 1194 54.324Z" fill="white"/>
<path d="M509 177.931C510.105 177.931 511 177.226 511 176.356C511 175.487 510.105 174.782 509 174.782C507.895 174.782 507 175.487 507 176.356C507 177.226 507.895 177.931 509 177.931Z" fill="white" fill-opacity="0.15"/>
<path d="M113 662.124C114.105 662.124 115 661.419 115 660.549C115 659.68 114.105 658.975 113 658.975C111.895 658.975 111 659.68 111 660.549C111 661.419 111.895 662.124 113 662.124Z" fill="white" fill-opacity="0.05"/>
<path d="M817 565.285C818.105 565.285 819 564.58 819 563.711C819 562.841 818.105 562.136 817 562.136C815.895 562.136 815 562.841 815 563.711C815 564.58 815.895 565.285 817 565.285Z" fill="white" fill-opacity="0.25"/>
<path d="M688 447.977C689.105 447.977 690 447.272 690 446.402C690 445.533 689.105 444.828 688 444.828C686.895 444.828 686 445.533 686 446.402C686 447.272 686.895 447.977 688 447.977Z" fill="white" fill-opacity="0.25"/>
<path d="M511 33.8543C512.105 33.8543 513 33.1493 513 32.2797C513 31.4101 512.105 30.7051 511 30.7051C509.895 30.7051 509 31.4101 509 32.2797C509 33.1493 509.895 33.8543 511 33.8543Z" fill="white" fill-opacity="0.25"/>
<path d="M1035 336.967C1036.1 336.967 1037 336.262 1037 335.392C1037 334.522 1036.1 333.817 1035 333.817C1033.9 333.817 1033 334.522 1033 335.392C1033 336.262 1033.9 336.967 1035 336.967Z" fill="white"/>
<path d="M1409 624.333C1410.1 624.333 1411 623.628 1411 622.759C1411 621.889 1410.1 621.184 1409 621.184C1407.9 621.184 1407 621.889 1407 622.759C1407 623.628 1407.9 624.333 1409 624.333Z" fill="white" fill-opacity="0.25"/>
<path d="M77 639.292C78.1046 639.292 79 638.587 79 637.717C79 636.848 78.1046 636.143 77 636.143C75.8954 636.143 75 636.848 75 637.717C75 638.587 75.8954 639.292 77 639.292Z" fill="white" fill-opacity="0.15"/>
<path d="M994 63.7718C995.105 63.7718 996 63.0668 996 62.1972C996 61.3275 995.105 60.6226 994 60.6226C992.895 60.6226 992 61.3275 992 62.1972C992 63.0668 992.895 63.7718 994 63.7718Z" fill="white" fill-opacity="0.05"/>
<path d="M128 468.447C129.105 468.447 130 467.742 130 466.872C130 466.002 129.105 465.297 128 465.297C126.895 465.297 126 466.002 126 466.872C126 467.742 126.895 468.447 128 468.447Z" fill="white" fill-opacity="0.25"/>
<path d="M1369 510.174C1370.1 510.174 1371 509.469 1371 508.599C1371 507.729 1370.1 507.024 1369 507.024C1367.9 507.024 1367 507.729 1367 508.599C1367 509.469 1367.9 510.174 1369 510.174Z" fill="white" fill-opacity="0.25"/>
<path d="M1294 78.7308C1295.1 78.7308 1296 78.0258 1296 77.1562C1296 76.2865 1295.1 75.5815 1294 75.5815C1292.9 75.5815 1292 76.2865 1292 77.1562C1292 78.0258 1292.9 78.7308 1294 78.7308Z" fill="white" fill-opacity="0.1"/>
<path d="M1146 414.91C1147.1 414.91 1148 414.205 1148 413.335C1148 412.466 1147.1 411.761 1146 411.761C1144.9 411.761 1144 412.466 1144 413.335C1144 414.205 1144.9 414.91 1146 414.91Z" fill="white" fill-opacity="0.05"/>
<path d="M462 237.766C463.105 237.766 464 237.061 464 236.192C464 235.322 463.105 234.617 462 234.617C460.895 234.617 460 235.322 460 236.192C460 237.061 460.895 237.766 462 237.766Z" fill="white" fill-opacity="0.1"/>
<path d="M731 481.044C732.105 481.044 733 480.339 733 479.469C733 478.6 732.105 477.895 731 477.895C729.895 477.895 729 478.6 729 479.469C729 480.339 729.895 481.044 731 481.044Z" fill="white" fill-opacity="0.1"/>
<path d="M913 341.691C914.105 341.691 915 340.986 915 340.116C915 339.246 914.105 338.542 913 338.542C911.895 338.542 911 339.246 911 340.116C911 340.986 911.895 341.691 913 341.691Z" fill="white" fill-opacity="0.1"/>
<path d="M1113 225.169C1114.1 225.169 1115 224.464 1115 223.595C1115 222.725 1114.1 222.02 1113 222.02C1111.9 222.02 1111 222.725 1111 223.595C1111 224.464 1111.9 225.169 1113 225.169Z" fill="white" fill-opacity="0.25"/>
<path d="M293 547.177C294.105 547.177 295 546.472 295 545.602C295 544.733 294.105 544.028 293 544.028C291.895 544.028 291 544.733 291 545.602C291 546.472 291.895 547.177 293 547.177Z" fill="white" fill-opacity="0.05"/>
<path d="M877 547.965C878.105 547.965 879 547.26 879 546.39C879 545.52 878.105 544.815 877 544.815C875.895 544.815 875 545.52 875 546.39C875 547.26 875.895 547.965 877 547.965Z" fill="white"/>
<path d="M123 138.566C124.105 138.566 125 137.861 125 136.991C125 136.121 124.105 135.417 123 135.417C121.895 135.417 121 136.121 121 136.991C121 137.861 121.895 138.566 123 138.566Z" fill="white" fill-opacity="0.05"/>
<path d="M907 547.965C908.105 547.965 909 547.26 909 546.39C909 545.52 908.105 544.815 907 544.815C905.895 544.815 905 545.52 905 546.39C905 547.26 905.895 547.965 907 547.965Z" fill="white" fill-opacity="0.25"/>
<path d="M253 218.084C254.105 218.084 255 217.379 255 216.509C255 215.64 254.105 214.935 253 214.935C251.895 214.935 251 215.64 251 216.509C251 217.379 251.895 218.084 253 218.084Z" fill="white" fill-opacity="0.15"/>
<path d="M1429 522.771C1430.1 522.771 1431 522.066 1431 521.196C1431 520.327 1430.1 519.622 1429 519.622C1427.9 519.622 1427 520.327 1427 521.196C1427 522.066 1427.9 522.771 1429 522.771Z" fill="white" fill-opacity="0.25"/>
<path d="M156 87.3909C157.105 87.3909 158 86.6859 158 85.8163C158 84.9467 157.105 84.2417 156 84.2417C154.895 84.2417 154 84.9467 154 85.8163C154 86.6859 154.895 87.3909 156 87.3909Z" fill="white" fill-opacity="0.15"/>
<path d="M1373 484.98C1374.1 484.98 1375 484.275 1375 483.406C1375 482.536 1374.1 481.831 1373 481.831C1371.9 481.831 1371 482.536 1371 483.406C1371 484.275 1371.9 484.98 1373 484.98Z" fill="white" fill-opacity="0.1"/>
<path d="M1167 67.7083C1168.1 67.7083 1169 67.0033 1169 66.1337C1169 65.2641 1168.1 64.5591 1167 64.5591C1165.9 64.5591 1165 65.2641 1165 66.1337C1165 67.0033 1165.9 67.7083 1167 67.7083Z" fill="white"/>
<path d="M288 446.402C289.105 446.402 290 445.697 290 444.828C290 443.958 289.105 443.253 288 443.253C286.895 443.253 286 443.958 286 444.828C286 445.697 286.895 446.402 288 446.402Z" fill="white"/>
<path d="M651 487.342C652.105 487.342 653 486.637 653 485.767C653 484.898 652.105 484.193 651 484.193C649.895 484.193 649 484.898 649 485.767C649 486.637 649.895 487.342 651 487.342Z" fill="white" fill-opacity="0.05"/>
<path d="M906 444.04C907.105 444.04 908 443.335 908 442.466C908 441.596 907.105 440.891 906 440.891C904.895 440.891 904 441.596 904 442.466C904 443.335 904.895 444.04 906 444.04Z" fill="white" fill-opacity="0.25"/>
<path d="M921 384.205C922.105 384.205 923 383.5 923 382.63C923 381.761 922.105 381.056 921 381.056C919.895 381.056 919 381.761 919 382.63C919 383.5 919.895 384.205 921 384.205Z" fill="white"/>
<path d="M862 380.268C863.105 380.268 864 379.563 864 378.694C864 377.824 863.105 377.119 862 377.119C860.895 377.119 860 377.824 860 378.694C860 379.563 860.895 380.268 862 380.268Z" fill="white" fill-opacity="0.15"/>
<path d="M1200 432.231C1201.1 432.231 1202 431.526 1202 430.656C1202 429.787 1201.1 429.082 1200 429.082C1198.9 429.082 1198 429.787 1198 430.656C1198 431.526 1198.9 432.231 1200 432.231Z" fill="white" fill-opacity="0.1"/>
<path d="M820 283.43C821.105 283.43 822 282.725 822 281.855C822 280.986 821.105 280.281 820 280.281C818.895 280.281 818 280.986 818 281.855C818 282.725 818.895 283.43 820 283.43Z" fill="white" fill-opacity="0.05"/>
<path d="M939 628.27C940.105 628.27 941 627.565 941 626.695C941 625.826 940.105 625.121 939 625.121C937.895 625.121 937 625.826 937 626.695C937 627.565 937.895 628.27 939 628.27Z" fill="white" fill-opacity="0.05"/>
<path d="M1206 296.814C1207.1 296.814 1208 296.109 1208 295.24C1208 294.37 1207.1 293.665 1206 293.665C1204.9 293.665 1204 294.37 1204 295.24C1204 296.109 1204.9 296.814 1206 296.814Z" fill="white"/>
<path d="M94 166.909C95.1046 166.909 96 166.204 96 165.334C96 164.465 95.1046 163.76 94 163.76C92.8954 163.76 92 164.465 92 165.334C92 166.204 92.8954 166.909 94 166.909Z" fill="white" fill-opacity="0.25"/>
<path d="M540 257.449C541.105 257.449 542 256.744 542 255.874C542 255.005 541.105 254.3 540 254.3C538.895 254.3 538 255.005 538 255.874C538 256.744 538.895 257.449 540 257.449Z" fill="white" fill-opacity="0.05"/>
<path d="M780 444.04C781.105 444.04 782 443.335 782 442.466C782 441.596 781.105 440.891 780 440.891C778.895 440.891 778 441.596 778 442.466C778 443.335 778.895 444.04 780 444.04Z" fill="white" fill-opacity="0.15"/>
<path d="M1065 396.014C1066.1 396.014 1067 395.309 1067 394.44C1067 393.57 1066.1 392.865 1065 392.865C1063.9 392.865 1063 393.57 1063 394.44C1063 395.309 1063.9 396.014 1065 396.014Z" fill="white" fill-opacity="0.1"/>
<path d="M889 127.544C890.105 127.544 891 126.839 891 125.969C891 125.1 890.105 124.395 889 124.395C887.895 124.395 887 125.1 887 125.969C887 126.839 887.895 127.544 889 127.544Z" fill="white" fill-opacity="0.25"/>
<path d="M929 304.687C930.105 304.687 931 303.982 931 303.113C931 302.243 930.105 301.538 929 301.538C927.895 301.538 927 302.243 927 303.113C927 303.982 927.895 304.687 929 304.687Z" fill="white" fill-opacity="0.25"/>
<path d="M131 272.408C132.105 272.408 133 271.703 133 270.833C133 269.963 132.105 269.258 131 269.258C129.895 269.258 129 269.963 129 270.833C129 271.703 129.895 272.408 131 272.408Z" fill="white" fill-opacity="0.25"/>
<path d="M1023 96.0516C1024.1 96.0516 1025 95.3466 1025 94.477C1025 93.6073 1024.1 92.9023 1023 92.9023C1021.9 92.9023 1021 93.6073 1021 94.477C1021 95.3466 1021.9 96.0516 1023 96.0516Z" fill="white" fill-opacity="0.05"/>
<path d="M1095 635.355C1096.1 635.355 1097 634.65 1097 633.781C1097 632.911 1096.1 632.206 1095 632.206C1093.9 632.206 1093 632.911 1093 633.781C1093 634.65 1093.9 635.355 1095 635.355Z" fill="white" fill-opacity="0.15"/>
<path d="M1331 541.666C1332.1 541.666 1333 540.961 1333 540.091C1333 539.222 1332.1 538.517 1331 538.517C1329.9 538.517 1329 539.222 1329 540.091C1329 540.961 1329.9 541.666 1331 541.666Z" fill="white" fill-opacity="0.25"/>
<path d="M164 168.483C165.105 168.483 166 167.778 166 166.909C166 166.039 165.105 165.334 164 165.334C162.895 165.334 162 166.039 162 166.909C162 167.778 162.895 168.483 164 168.483Z" fill="white" fill-opacity="0.05"/>
<path d="M556 526.707C557.105 526.707 558 526.002 558 525.133C558 524.263 557.105 523.558 556 523.558C554.895 523.558 554 524.263 554 525.133C554 526.002 554.895 526.707 556 526.707Z" fill="white" fill-opacity="0.15"/>
<path d="M1162 181.08C1163.1 181.08 1164 180.375 1164 179.506C1164 178.636 1163.1 177.931 1162 177.931C1160.9 177.931 1160 178.636 1160 179.506C1160 180.375 1160.9 181.08 1162 181.08Z" fill="white" fill-opacity="0.15"/>
<path d="M86 467.659C87.1046 467.659 88 466.954 88 466.085C88 465.215 87.1046 464.51 86 464.51C84.8954 464.51 84 465.215 84 466.085C84 466.954 84.8954 467.659 86 467.659Z" fill="white" fill-opacity="0.25"/>
<path d="M1075 434.593C1076.1 434.593 1077 433.888 1077 433.018C1077 432.148 1076.1 431.443 1075 431.443C1073.9 431.443 1073 432.148 1073 433.018C1073 433.888 1073.9 434.593 1075 434.593Z" fill="white" fill-opacity="0.15"/>
<path d="M1367 251.151C1368.1 251.151 1369 250.446 1369 249.576C1369 248.706 1368.1 248.001 1367 248.001C1365.9 248.001 1365 248.706 1365 249.576C1365 250.446 1365.9 251.151 1367 251.151Z" fill="white" fill-opacity="0.1"/>
<path d="M28 351.926C29.1046 351.926 30 351.221 30 350.351C30 349.481 29.1046 348.776 28 348.776C26.8954 348.776 26 349.481 26 350.351C26 351.221 26.8954 351.926 28 351.926Z" fill="white" fill-opacity="0.05"/>
<path d="M1159 512.536C1160.1 512.536 1161 511.831 1161 510.961C1161 510.092 1160.1 509.387 1159 509.387C1157.9 509.387 1157 510.092 1157 510.961C1157 511.831 1157.9 512.536 1159 512.536Z" fill="white" fill-opacity="0.05"/>
<path d="M1121 304.687C1122.1 304.687 1123 303.982 1123 303.113C1123 302.243 1122.1 301.538 1121 301.538C1119.9 301.538 1119 302.243 1119 303.113C1119 303.982 1119.9 304.687 1121 304.687Z" fill="white" fill-opacity="0.1"/>
<path d="M792 355.862C793.105 355.862 794 355.157 794 354.288C794 353.418 793.105 352.713 792 352.713C790.895 352.713 790 353.418 790 354.288C790 355.157 790.895 355.862 792 355.862Z" fill="white" fill-opacity="0.1"/>
<path d="M84 25.1937C85.1046 25.1937 86 24.4887 86 23.619C86 22.7494 85.1046 22.0444 84 22.0444C82.8954 22.0444 82 22.7494 82 23.619C82 24.4887 82.8954 25.1937 84 25.1937Z" fill="white" fill-opacity="0.05"/>
<path d="M802 588.117C803.105 588.117 804 587.412 804 586.542C804 585.673 803.105 584.968 802 584.968C800.895 584.968 800 585.673 800 586.542C800 587.412 800.895 588.117 802 588.117Z" fill="white" fill-opacity="0.15"/>
<path d="M396 253.513C397.105 253.513 398 252.808 398 251.938C398 251.068 397.105 250.363 396 250.363C394.895 250.363 394 251.068 394 251.938C394 252.808 394.895 253.513 396 253.513Z" fill="white" fill-opacity="0.05"/>
<path d="M576 455.062C577.105 455.062 578 454.357 578 453.488C578 452.618 577.105 451.913 576 451.913C574.895 451.913 574 452.618 574 453.488C574 454.357 574.895 455.062 576 455.062Z" fill="white"/>
<path d="M1251 198.401C1252.1 198.401 1253 197.696 1253 196.827C1253 195.957 1252.1 195.252 1251 195.252C1249.9 195.252 1249 195.957 1249 196.827C1249 197.696 1249.9 198.401 1251 198.401Z" fill="white" fill-opacity="0.25"/>
<path d="M718 207.061C719.105 207.061 720 206.356 720 205.487C720 204.617 719.105 203.912 718 203.912C716.895 203.912 716 204.617 716 205.487C716 206.356 716.895 207.061 718 207.061Z" fill="white" fill-opacity="0.15"/>
<path d="M1225 210.998C1226.1 210.998 1227 210.293 1227 209.423C1227 208.554 1226.1 207.849 1225 207.849C1223.9 207.849 1223 208.554 1223 209.423C1223 210.293 1223.9 210.998 1225 210.998Z" fill="white" fill-opacity="0.25"/>
<path d="M919 41.7273C920.105 41.7273 921 41.0224 921 40.1527C921 39.2831 920.105 38.5781 919 38.5781C917.895 38.5781 917 39.2831 917 40.1527C917 41.0224 917.895 41.7273 919 41.7273Z" fill="white" fill-opacity="0.25"/>
<path d="M623 536.155C624.105 536.155 625 535.45 625 534.58C625 533.711 624.105 533.006 623 533.006C621.895 533.006 621 533.711 621 534.58C621 535.45 621.895 536.155 623 536.155Z" fill="white" fill-opacity="0.25"/>
<path d="M134 562.923C135.105 562.923 136 562.218 136 561.349C136 560.479 135.105 559.774 134 559.774C132.895 559.774 132 560.479 132 561.349C132 562.218 132.895 562.923 134 562.923Z" fill="white" fill-opacity="0.05"/>
<path d="M897 208.636C898.105 208.636 899 207.931 899 207.061C899 206.192 898.105 205.487 897 205.487C895.895 205.487 895 206.192 895 207.061C895 207.931 895.895 208.636 897 208.636Z" fill="white" fill-opacity="0.15"/>
<path d="M903 416.485C904.105 416.485 905 415.78 905 414.91C905 414.04 904.105 413.335 903 413.335C901.895 413.335 901 414.04 901 414.91C901 415.78 901.895 416.485 903 416.485Z" fill="white" fill-opacity="0.15"/>
<path d="M418 592.841C419.105 592.841 420 592.136 420 591.267C420 590.397 419.105 589.692 418 589.692C416.895 589.692 416 590.397 416 591.267C416 592.136 416.895 592.841 418 592.841Z" fill="white" fill-opacity="0.1"/>
<path d="M1128 232.255C1129.1 232.255 1130 231.55 1130 230.681C1130 229.811 1129.1 229.106 1128 229.106C1126.9 229.106 1126 229.811 1126 230.681C1126 231.55 1126.9 232.255 1128 232.255Z" fill="white" fill-opacity="0.05"/>
<path d="M1123 480.256C1124.1 480.256 1125 479.551 1125 478.682C1125 477.812 1124.1 477.107 1123 477.107C1121.9 477.107 1121 477.812 1121 478.682C1121 479.551 1121.9 480.256 1123 480.256Z" fill="white" fill-opacity="0.25"/>
<path d="M514 40.9397C515.105 40.9397 516 40.2348 516 39.3651C516 38.4955 515.105 37.7905 514 37.7905C512.895 37.7905 512 38.4955 512 39.3651C512 40.2348 512.895 40.9397 514 40.9397Z" fill="white" fill-opacity="0.05"/>
<path d="M1100 672.359C1101.1 672.359 1102 671.654 1102 670.784C1102 669.914 1101.1 669.209 1100 669.209C1098.9 669.209 1098 669.914 1098 670.784C1098 671.654 1098.9 672.359 1100 672.359Z" fill="white"/>
<path d="M1429 466.085C1430.1 466.085 1431 465.38 1431 464.51C1431 463.641 1430.1 462.936 1429 462.936C1427.9 462.936 1427 463.641 1427 464.51C1427 465.38 1427.9 466.085 1429 466.085Z" fill="white" fill-opacity="0.25"/>
<path d="M879 317.284C880.105 317.284 881 316.579 881 315.709C881 314.84 880.105 314.135 879 314.135C877.895 314.135 877 314.84 877 315.709C877 316.579 877.895 317.284 879 317.284Z" fill="white" fill-opacity="0.05"/>
<path d="M422 19.6829C423.105 19.6829 424 18.9779 424 18.1083C424 17.2387 423.105 16.5337 422 16.5337C420.895 16.5337 420 17.2387 420 18.1083C420 18.9779 420.895 19.6829 422 19.6829Z" fill="white" fill-opacity="0.15"/>
<path d="M734 574.733C735.105 574.733 736 574.028 736 573.158C736 572.288 735.105 571.583 734 571.583C732.895 571.583 732 572.288 732 573.158C732 574.028 732.895 574.733 734 574.733Z" fill="white" fill-opacity="0.25"/>
<path d="M1439 331.455C1440.1 331.455 1441 330.75 1441 329.881C1441 329.011 1440.1 328.306 1439 328.306C1437.9 328.306 1437 329.011 1437 329.881C1437 330.75 1437.9 331.455 1439 331.455Z" fill="white" fill-opacity="0.1"/>
<path d="M1099 333.03C1100.1 333.03 1101 332.325 1101 331.455C1101 330.586 1100.1 329.881 1099 329.881C1097.9 329.881 1097 330.586 1097 331.455C1097 332.325 1097.9 333.03 1099 333.03Z" fill="white" fill-opacity="0.05"/>
<path d="M193 629.844C194.105 629.844 195 629.139 195 628.269C195 627.4 194.105 626.695 193 626.695C191.895 626.695 191 627.4 191 628.269C191 629.139 191.895 629.844 193 629.844Z" fill="white" fill-opacity="0.05"/>
<path d="M1392 594.415C1393.1 594.415 1394 593.71 1394 592.841C1394 591.971 1393.1 591.266 1392 591.266C1390.9 591.266 1390 591.971 1390 592.841C1390 593.71 1390.9 594.415 1392 594.415Z" fill="white" fill-opacity="0.05"/>
<path d="M872 620.397C873.105 620.397 874 619.692 874 618.822C874 617.953 873.105 617.248 872 617.248C870.895 617.248 870 617.953 870 618.822C870 619.692 870.895 620.397 872 620.397Z" fill="white" fill-opacity="0.25"/>
<path d="M438 357.437C439.105 357.437 440 356.732 440 355.862C440 354.993 439.105 354.288 438 354.288C436.895 354.288 436 354.993 436 355.862C436 356.732 436.895 357.437 438 357.437Z" fill="white" fill-opacity="0.1"/>
<path d="M790 636.93C791.105 636.93 792 636.225 792 635.355C792 634.486 791.105 633.781 790 633.781C788.895 633.781 788 634.486 788 635.355C788 636.225 788.895 636.93 790 636.93Z" fill="white" fill-opacity="0.15"/>
<path d="M814 248.788C815.105 248.788 816 248.083 816 247.214C816 246.344 815.105 245.639 814 245.639C812.895 245.639 812 246.344 812 247.214C812 248.083 812.895 248.788 814 248.788Z" fill="white" fill-opacity="0.25"/>
<path d="M102 584.968C103.105 584.968 104 584.263 104 583.393C104 582.524 103.105 581.819 102 581.819C100.895 581.819 100 582.524 100 583.393C100 584.263 100.895 584.968 102 584.968Z" fill="white" fill-opacity="0.25"/>
<path d="M1117 124.394C1118.1 124.394 1119 123.689 1119 122.82C1119 121.95 1118.1 121.245 1117 121.245C1115.9 121.245 1115 121.95 1115 122.82C1115 123.689 1115.9 124.394 1117 124.394Z" fill="white" fill-opacity="0.1"/>
<path d="M1388 694.403C1389.1 694.403 1390 693.698 1390 692.829C1390 691.959 1389.1 691.254 1388 691.254C1386.9 691.254 1386 691.959 1386 692.829C1386 693.698 1386.9 694.403 1388 694.403Z" fill="white" fill-opacity="0.1"/>
<path d="M319 699.127C320.105 699.127 321 698.422 321 697.553C321 696.683 320.105 695.978 319 695.978C317.895 695.978 317 696.683 317 697.553C317 698.422 317.895 699.127 319 699.127Z" fill="white" fill-opacity="0.25"/>
<path d="M545 347.989C546.105 347.989 547 347.284 547 346.414C547 345.545 546.105 344.84 545 344.84C543.895 344.84 543 345.545 543 346.414C543 347.284 543.895 347.989 545 347.989Z" fill="white" fill-opacity="0.25"/>
<path d="M917 551.901C918.105 551.901 919 551.196 919 550.327C919 549.457 918.105 548.752 917 548.752C915.895 548.752 915 549.457 915 550.327C915 551.196 915.895 551.901 917 551.901Z" fill="white" fill-opacity="0.1"/>
<path d="M192 27.556C193.105 27.556 194 26.851 194 25.9813C194 25.1117 193.105 24.4067 192 24.4067C190.895 24.4067 190 25.1117 190 25.9813C190 26.851 190.895 27.556 192 27.556Z" fill="white" fill-opacity="0.05"/>
<path d="M816 286.579C817.105 286.579 818 285.874 818 285.005C818 284.135 817.105 283.43 816 283.43C814.895 283.43 814 284.135 814 285.005C814 285.874 814.895 286.579 816 286.579Z" fill="white" fill-opacity="0.25"/>
<path d="M291 68.4954C292.105 68.4954 293 67.7904 293 66.9208C293 66.0512 292.105 65.3462 291 65.3462C289.895 65.3462 289 66.0512 289 66.9208C289 67.7904 289.895 68.4954 291 68.4954Z" fill="white" fill-opacity="0.1"/>
<path d="M1162 347.201C1163.1 347.201 1164 346.496 1164 345.627C1164 344.757 1163.1 344.052 1162 344.052C1160.9 344.052 1160 344.757 1160 345.627C1160 346.496 1160.9 347.201 1162 347.201Z" fill="white"/>
<path d="M1441 296.027C1442.1 296.027 1443 295.322 1443 294.452C1443 293.582 1442.1 292.877 1441 292.877C1439.9 292.877 1439 293.582 1439 294.452C1439 295.322 1439.9 296.027 1441 296.027Z" fill="white" fill-opacity="0.1"/>
<path d="M1398 449.551C1399.1 449.551 1400 448.846 1400 447.976C1400 447.107 1399.1 446.402 1398 446.402C1396.9 446.402 1396 447.107 1396 447.976C1396 448.846 1396.9 449.551 1398 449.551Z" fill="white"/>
<path d="M116 97.6258C117.105 97.6258 118 96.9208 118 96.0512C118 95.1815 117.105 94.4766 116 94.4766C114.895 94.4766 114 95.1815 114 96.0512C114 96.9208 114.895 97.6258 116 97.6258Z" fill="white" fill-opacity="0.05"/>
<path d="M248 419.634C249.105 419.634 250 418.929 250 418.059C250 417.189 249.105 416.484 248 416.484C246.895 416.484 246 417.189 246 418.059C246 418.929 246.895 419.634 248 419.634Z" fill="white" fill-opacity="0.05"/>
<path d="M772 414.91C773.105 414.91 774 414.205 774 413.335C774 412.466 773.105 411.761 772 411.761C770.895 411.761 770 412.466 770 413.335C770 414.205 770.895 414.91 772 414.91Z" fill="white" fill-opacity="0.25"/>
<path d="M234 19.6829C235.105 19.6829 236 18.9779 236 18.1083C236 17.2387 235.105 16.5337 234 16.5337C232.895 16.5337 232 17.2387 232 18.1083C232 18.9779 232.895 19.6829 234 19.6829Z" fill="white" fill-opacity="0.1"/>
<path d="M64 270.833C65.1046 270.833 66 270.128 66 269.259C66 268.389 65.1046 267.684 64 267.684C62.8954 267.684 62 268.389 62 269.259C62 270.128 62.8954 270.833 64 270.833Z" fill="white" fill-opacity="0.15"/>
<path d="M1247 105.499C1248.1 105.499 1249 104.794 1249 103.924C1249 103.055 1248.1 102.35 1247 102.35C1245.9 102.35 1245 103.055 1245 103.924C1245 104.794 1245.9 105.499 1247 105.499Z" fill="white" fill-opacity="0.15"/>
<path d="M1083 416.485C1084.1 416.485 1085 415.78 1085 414.91C1085 414.04 1084.1 413.335 1083 413.335C1081.9 413.335 1081 414.04 1081 414.91C1081 415.78 1081.9 416.485 1083 416.485Z" fill="white" fill-opacity="0.1"/>
<path d="M179 536.155C180.105 536.155 181 535.45 181 534.58C181 533.711 180.105 533.006 179 533.006C177.895 533.006 177 533.711 177 534.58C177 535.45 177.895 536.155 179 536.155Z" fill="white" fill-opacity="0.1"/>
<path d="M1290 533.006C1291.1 533.006 1292 532.301 1292 531.431C1292 530.561 1291.1 529.856 1290 529.856C1288.9 529.856 1288 530.561 1288 531.431C1288 532.301 1288.9 533.006 1290 533.006Z" fill="white" fill-opacity="0.25"/>
<path d="M454 622.759C455.105 622.759 456 622.054 456 621.184C456 620.314 455.105 619.609 454 619.609C452.895 619.609 452 620.314 452 621.184C452 622.054 452.895 622.759 454 622.759Z" fill="white"/>
<path d="M801 168.483C802.105 168.483 803 167.778 803 166.909C803 166.039 802.105 165.334 801 165.334C799.895 165.334 799 166.039 799 166.909C799 167.778 799.895 168.483 801 168.483Z" fill="white" fill-opacity="0.15"/>
<path d="M773 199.975C774.105 199.975 775 199.27 775 198.401C775 197.531 774.105 196.826 773 196.826C771.895 196.826 771 197.531 771 198.401C771 199.27 771.895 199.975 773 199.975Z" fill="white" fill-opacity="0.25"/>
<path d="M1144 651.889C1145.1 651.889 1146 651.184 1146 650.314C1146 649.445 1145.1 648.74 1144 648.74C1142.9 648.74 1142 649.445 1142 650.314C1142 651.184 1142.9 651.889 1144 651.889Z" fill="white"/>
<path d="M349 446.402C350.105 446.402 351 445.697 351 444.828C351 443.958 350.105 443.253 349 443.253C347.895 443.253 347 443.958 347 444.828C347 445.697 347.895 446.402 349 446.402Z" fill="white"/>
<path d="M792 307.049C793.105 307.049 794 306.344 794 305.475C794 304.605 793.105 303.9 792 303.9C790.895 303.9 790 304.605 790 305.475C790 306.344 790.895 307.049 792 307.049Z" fill="white" fill-opacity="0.25"/>
<path d="M1411 136.991C1412.1 136.991 1413 136.286 1413 135.416C1413 134.547 1412.1 133.842 1411 133.842C1409.9 133.842 1409 134.547 1409 135.416C1409 136.286 1409.9 136.991 1411 136.991Z" fill="white" fill-opacity="0.15"/>
<path d="M833 147.226C834.105 147.226 835 146.521 835 145.652C835 144.782 834.105 144.077 833 144.077C831.895 144.077 831 144.782 831 145.652C831 146.521 831.895 147.226 833 147.226Z" fill="white" fill-opacity="0.05"/>
<path d="M958 395.227C959.105 395.227 960 394.522 960 393.653C960 392.783 959.105 392.078 958 392.078C956.895 392.078 956 392.783 956 393.653C956 394.522 956.895 395.227 958 395.227Z" fill="white" fill-opacity="0.1"/>
<path d="M989 212.573C990.105 212.573 991 211.868 991 210.998C991 210.128 990.105 209.423 989 209.423C987.895 209.423 987 210.128 987 210.998C987 211.868 987.895 212.573 989 212.573Z" fill="white" fill-opacity="0.15"/>
<path d="M200 465.298C201.105 465.298 202 464.593 202 463.723C202 462.853 201.105 462.148 200 462.148C198.895 462.148 198 462.853 198 463.723C198 464.593 198.895 465.298 200 465.298Z" fill="white" fill-opacity="0.25"/>
<path d="M269 533.793C270.105 533.793 271 533.088 271 532.218C271 531.349 270.105 530.644 269 530.644C267.895 530.644 267 531.349 267 532.218C267 533.088 267.895 533.793 269 533.793Z" fill="white" fill-opacity="0.15"/>
<path d="M625 136.204C626.105 136.204 627 135.499 627 134.629C627 133.76 626.105 133.055 625 133.055C623.895 133.055 623 133.76 623 134.629C623 135.499 623.895 136.204 625 136.204Z" fill="white" fill-opacity="0.25"/>
<path d="M1026 440.104C1027.1 440.104 1028 439.399 1028 438.529C1028 437.66 1027.1 436.955 1026 436.955C1024.9 436.955 1024 437.66 1024 438.529C1024 439.399 1024.9 440.104 1026 440.104Z" fill="white"/>
<path d="M687 692.828C688.105 692.828 689 692.123 689 691.254C689 690.384 688.105 689.679 687 689.679C685.895 689.679 685 690.384 685 691.254C685 692.123 685.895 692.828 687 692.828Z" fill="white" fill-opacity="0.05"/>
<path d="M548 477.894C549.105 477.894 550 477.189 550 476.32C550 475.45 549.105 474.745 548 474.745C546.895 474.745 546 475.45 546 476.32C546 477.189 546.895 477.894 548 477.894Z" fill="white" fill-opacity="0.25"/>
<path d="M27 159.036C28.1046 159.036 29 158.331 29 157.461C29 156.592 28.1046 155.887 27 155.887C25.8954 155.887 25 156.592 25 157.461C25 158.331 25.8954 159.036 27 159.036Z" fill="white" fill-opacity="0.1"/>
<path d="M701 696.765C702.105 696.765 703 696.06 703 695.19C703 694.321 702.105 693.616 701 693.616C699.895 693.616 699 694.321 699 695.19C699 696.06 699.895 696.765 701 696.765Z" fill="white" fill-opacity="0.25"/>
<path d="M597 440.104C598.105 440.104 599 439.399 599 438.529C599 437.66 598.105 436.955 597 436.955C595.895 436.955 595 437.66 595 438.529C595 439.399 595.895 440.104 597 440.104Z" fill="white" fill-opacity="0.1"/>
<path d="M484 395.227C485.105 395.227 486 394.522 486 393.653C486 392.783 485.105 392.078 484 392.078C482.895 392.078 482 392.783 482 393.653C482 394.522 482.895 395.227 484 395.227Z" fill="white"/>
<path d="M1079 314.922C1080.1 314.922 1081 314.217 1081 313.348C1081 312.478 1080.1 311.773 1079 311.773C1077.9 311.773 1077 312.478 1077 313.348C1077 314.217 1077.9 314.922 1079 314.922Z" fill="white" fill-opacity="0.1"/>
<path d="M285 559.774C286.105 559.774 287 559.069 287 558.2C287 557.33 286.105 556.625 285 556.625C283.895 556.625 283 557.33 283 558.2C283 559.069 283.895 559.774 285 559.774Z" fill="white" fill-opacity="0.1"/>
<path d="M1024 6.29863C1025.1 6.29863 1026 5.59366 1026 4.72402C1026 3.85439 1025.1 3.14941 1024 3.14941C1022.9 3.14941 1022 3.85439 1022 4.72402C1022 5.59366 1022.9 6.29863 1024 6.29863Z" fill="white" fill-opacity="0.15"/>
<path d="M450 550.326C451.105 550.326 452 549.621 452 548.752C452 547.882 451.105 547.177 450 547.177C448.895 547.177 448 547.882 448 548.752C448 549.621 448.895 550.326 450 550.326Z" fill="white" fill-opacity="0.05"/>
<path d="M1041 192.89C1042.1 192.89 1043 192.185 1043 191.315C1043 190.446 1042.1 189.741 1041 189.741C1039.9 189.741 1039 190.446 1039 191.315C1039 192.185 1039.9 192.89 1041 192.89Z" fill="white" fill-opacity="0.25"/>
<path d="M70 381.056C71.1046 381.056 72 380.351 72 379.481C72 378.612 71.1046 377.907 70 377.907C68.8954 377.907 68 378.612 68 379.481C68 380.351 68.8954 381.056 70 381.056Z" fill="white" fill-opacity="0.25"/>
<path d="M1043 36.2161C1044.1 36.2161 1045 35.5111 1045 34.6415C1045 33.7719 1044.1 33.0669 1043 33.0669C1041.9 33.0669 1041 33.7719 1041 34.6415C1041 35.5111 1041.9 36.2161 1043 36.2161Z" fill="white" fill-opacity="0.15"/>
<path d="M1269 400.739C1270.1 400.739 1271 400.034 1271 399.164C1271 398.294 1270.1 397.589 1269 397.589C1267.9 397.589 1267 398.294 1267 399.164C1267 400.034 1267.9 400.739 1269 400.739Z" fill="white" fill-opacity="0.15"/>
<path d="M1372 210.998C1373.1 210.998 1374 210.293 1374 209.423C1374 208.554 1373.1 207.849 1372 207.849C1370.9 207.849 1370 208.554 1370 209.423C1370 210.293 1370.9 210.998 1372 210.998Z" fill="white" fill-opacity="0.1"/>
<path d="M1298 562.136C1299.1 562.136 1300 561.431 1300 560.561C1300 559.692 1299.1 558.987 1298 558.987C1296.9 558.987 1296 559.692 1296 560.561C1296 561.431 1296.9 562.136 1298 562.136Z" fill="white"/>
<path d="M109 680.232C110.105 680.232 111 679.527 111 678.657C111 677.787 110.105 677.083 109 677.083C107.895 677.083 107 677.787 107 678.657C107 679.527 107.895 680.232 109 680.232Z" fill="white" fill-opacity="0.1"/>
<path d="M135 575.52C136.105 575.52 137 574.815 137 573.946C137 573.076 136.105 572.371 135 572.371C133.895 572.371 133 573.076 133 573.946C133 574.815 133.895 575.52 135 575.52Z" fill="white" fill-opacity="0.1"/>
<path d="M547 333.818C548.105 333.818 549 333.113 549 332.243C549 331.373 548.105 330.668 547 330.668C545.895 330.668 545 331.373 545 332.243C545 333.113 545.895 333.818 547 333.818Z" fill="white" fill-opacity="0.1"/>
<path d="M1020 204.7C1021.1 204.7 1022 203.995 1022 203.125C1022 202.255 1021.1 201.55 1020 201.55C1018.9 201.55 1018 202.255 1018 203.125C1018 203.995 1018.9 204.7 1020 204.7Z" fill="white" fill-opacity="0.05"/>
<path d="M64 91.3274C65.1046 91.3274 66 90.6225 66 89.7528C66 88.8832 65.1046 88.1782 64 88.1782C62.8954 88.1782 62 88.8832 62 89.7528C62 90.6225 62.8954 91.3274 64 91.3274Z" fill="white" fill-opacity="0.15"/>
<path d="M196 678.657C197.105 678.657 198 677.952 198 677.082C198 676.213 197.105 675.508 196 675.508C194.895 675.508 194 676.213 194 677.082C194 677.952 194.895 678.657 196 678.657Z" fill="white" fill-opacity="0.05"/>
<path d="M1016 341.691C1017.1 341.691 1018 340.986 1018 340.116C1018 339.246 1017.1 338.542 1016 338.542C1014.9 338.542 1014 339.246 1014 340.116C1014 340.986 1014.9 341.691 1016 341.691Z" fill="white" fill-opacity="0.25"/>
<path d="M655 517.26C656.105 517.26 657 516.555 657 515.685C657 514.815 656.105 514.11 655 514.11C653.895 514.11 653 514.815 653 515.685C653 516.555 653.895 517.26 655 517.26Z" fill="white" fill-opacity="0.1"/>
<path d="M571 692.828C572.105 692.828 573 692.123 573 691.254C573 690.384 572.105 689.679 571 689.679C569.895 689.679 569 690.384 569 691.254C569 692.123 569.895 692.828 571 692.828Z" fill="white" fill-opacity="0.25"/>
<path d="M366 161.398C367.105 161.398 368 160.693 368 159.823C368 158.954 367.105 158.249 366 158.249C364.895 158.249 364 158.954 364 159.823C364 160.693 364.895 161.398 366 161.398Z" fill="white" fill-opacity="0.1"/>
<path d="M724 461.361C725.105 461.361 726 460.656 726 459.786C726 458.916 725.105 458.211 724 458.211C722.895 458.211 722 458.916 722 459.786C722 460.656 722.895 461.361 724 461.361Z" fill="white" fill-opacity="0.05"/>
<path d="M714 628.27C715.105 628.27 716 627.565 716 626.695C716 625.826 715.105 625.121 714 625.121C712.895 625.121 712 625.826 712 626.695C712 627.565 712.895 628.27 714 628.27Z" fill="white" fill-opacity="0.15"/>
<path d="M170 585.755C171.105 585.755 172 585.05 172 584.181C172 583.311 171.105 582.606 170 582.606C168.895 582.606 168 583.311 168 584.181C168 585.05 168.895 585.755 170 585.755Z" fill="white" fill-opacity="0.25"/>
<path d="M1152 657.4C1153.1 657.4 1154 656.695 1154 655.825C1154 654.955 1153.1 654.25 1152 654.25C1150.9 654.25 1150 654.955 1150 655.825C1150 656.695 1150.9 657.4 1152 657.4Z" fill="white" fill-opacity="0.25"/>
<path d="M832 404.675C833.105 404.675 834 403.97 834 403.1C834 402.231 833.105 401.526 832 401.526C830.895 401.526 830 402.231 830 403.1C830 403.97 830.895 404.675 832 404.675Z" fill="white" fill-opacity="0.25"/>
<path d="M1211 415.697C1212.1 415.697 1213 414.992 1213 414.122C1213 413.253 1212.1 412.548 1211 412.548C1209.9 412.548 1209 413.253 1209 414.122C1209 414.992 1209.9 415.697 1211 415.697Z" fill="white" fill-opacity="0.25"/>
<path d="M1194 588.905C1195.1 588.905 1196 588.2 1196 587.33C1196 586.46 1195.1 585.755 1194 585.755C1192.9 585.755 1192 586.46 1192 587.33C1192 588.2 1192.9 588.905 1194 588.905Z" fill="white" fill-opacity="0.1"/>
<path d="M268 529.856C269.105 529.856 270 529.151 270 528.282C270 527.412 269.105 526.707 268 526.707C266.895 526.707 266 527.412 266 528.282C266 529.151 266.895 529.856 268 529.856Z" fill="white" fill-opacity="0.05"/>
<path d="M626 444.827C627.105 444.827 628 444.122 628 443.253C628 442.383 627.105 441.678 626 441.678C624.895 441.678 624 442.383 624 443.253C624 444.122 624.895 444.827 626 444.827Z" fill="white" fill-opacity="0.05"/>
<path d="M9 307.836C10.1046 307.836 11 307.131 11 306.262C11 305.392 10.1046 304.687 9 304.687C7.89543 304.687 7 305.392 7 306.262C7 307.131 7.89543 307.836 9 307.836Z" fill="white" fill-opacity="0.15"/>
<path d="M598 312.56C599.105 312.56 600 311.855 600 310.986C600 310.116 599.105 309.411 598 309.411C596.895 309.411 596 310.116 596 310.986C596 311.855 596.895 312.56 598 312.56Z" fill="white" fill-opacity="0.1"/>
<path d="M350 27.556C351.105 27.556 352 26.851 352 25.9813C352 25.1117 351.105 24.4067 350 24.4067C348.895 24.4067 348 25.1117 348 25.9813C348 26.851 348.895 27.556 350 27.556Z" fill="white" fill-opacity="0.05"/>
<path d="M307 222.807C308.105 222.807 309 222.102 309 221.233C309 220.363 308.105 219.658 307 219.658C305.895 219.658 305 220.363 305 221.233C305 222.102 305.895 222.807 307 222.807Z" fill="white" fill-opacity="0.25"/>
<path d="M157 314.922C158.105 314.922 159 314.217 159 313.348C159 312.478 158.105 311.773 157 311.773C155.895 311.773 155 312.478 155 313.348C155 314.217 155.895 314.922 157 314.922Z" fill="white" fill-opacity="0.25"/>
<path d="M470 399.951C471.105 399.951 472 399.246 472 398.376C472 397.507 471.105 396.802 470 396.802C468.895 396.802 468 397.507 468 398.376C468 399.246 468.895 399.951 470 399.951Z" fill="white" fill-opacity="0.05"/>
<path d="M1099 656.613C1100.1 656.613 1101 655.908 1101 655.038C1101 654.168 1100.1 653.463 1099 653.463C1097.9 653.463 1097 654.168 1097 655.038C1097 655.908 1097.9 656.613 1099 656.613Z" fill="white" fill-opacity="0.05"/>
<path d="M477 87.3909C478.105 87.3909 479 86.6859 479 85.8163C479 84.9467 478.105 84.2417 477 84.2417C475.895 84.2417 475 84.9467 475 85.8163C475 86.6859 475.895 87.3909 477 87.3909Z" fill="white" fill-opacity="0.05"/>
<path d="M563 325.945C564.105 325.945 565 325.24 565 324.37C565 323.5 564.105 322.795 563 322.795C561.895 322.795 561 323.5 561 324.37C561 325.24 561.895 325.945 563 325.945Z" fill="white" fill-opacity="0.15"/>
<path d="M1281 198.401C1282.1 198.401 1283 197.696 1283 196.827C1283 195.957 1282.1 195.252 1281 195.252C1279.9 195.252 1279 195.957 1279 196.827C1279 197.696 1279.9 198.401 1281 198.401Z" fill="white" fill-opacity="0.05"/>
<path d="M1028 93.6893C1029.1 93.6893 1030 92.9843 1030 92.1146C1030 91.245 1029.1 90.54 1028 90.54C1026.9 90.54 1026 91.245 1026 92.1146C1026 92.9843 1026.9 93.6893 1028 93.6893Z" fill="white" fill-opacity="0.15"/>
<path d="M1128 333.818C1129.1 333.818 1130 333.113 1130 332.243C1130 331.373 1129.1 330.668 1128 330.668C1126.9 330.668 1126 331.373 1126 332.243C1126 333.113 1126.9 333.818 1128 333.818Z" fill="white" fill-opacity="0.1"/>
<path d="M763 454.275C764.105 454.275 765 453.57 765 452.701C765 451.831 764.105 451.126 763 451.126C761.895 451.126 761 451.831 761 452.701C761 453.57 761.895 454.275 763 454.275Z" fill="white" fill-opacity="0.05"/>
<path d="M650 210.998C651.105 210.998 652 210.293 652 209.423C652 208.554 651.105 207.849 650 207.849C648.895 207.849 648 208.554 648 209.423C648 210.293 648.895 210.998 650 210.998Z" fill="white" fill-opacity="0.05"/>
<path d="M241 619.609C242.105 619.609 243 618.904 243 618.035C243 617.165 242.105 616.46 241 616.46C239.895 616.46 239 617.165 239 618.035C239 618.904 239.895 619.609 241 619.609Z" fill="white" fill-opacity="0.15"/>
<path d="M742 375.545C743.105 375.545 744 374.84 744 373.97C744 373.1 743.105 372.396 742 372.396C740.895 372.396 740 373.1 740 373.97C740 374.84 740.895 375.545 742 375.545Z" fill="white" fill-opacity="0.15"/>
<path d="M760 94.4769C761.105 94.4769 762 93.7719 762 92.9022C762 92.0326 761.105 91.3276 760 91.3276C758.895 91.3276 758 92.0326 758 92.9022C758 93.7719 758.895 94.4769 760 94.4769Z" fill="white" fill-opacity="0.05"/>
<path d="M1262 222.807C1263.1 222.807 1264 222.102 1264 221.233C1264 220.363 1263.1 219.658 1262 219.658C1260.9 219.658 1260 220.363 1260 221.233C1260 222.102 1260.9 222.807 1262 222.807Z" fill="white" fill-opacity="0.05"/>
<path d="M593 398.376C594.105 398.376 595 397.671 595 396.802C595 395.932 594.105 395.227 593 395.227C591.895 395.227 591 395.932 591 396.802C591 397.671 591.895 398.376 593 398.376Z" fill="white"/>
<path d="M964 117.308C965.105 117.308 966 116.603 966 115.734C966 114.864 965.105 114.159 964 114.159C962.895 114.159 962 114.864 962 115.734C962 116.603 962.895 117.308 964 117.308Z" fill="white" fill-opacity="0.05"/>
<path d="M950 375.545C951.105 375.545 952 374.84 952 373.97C952 373.1 951.105 372.396 950 372.396C948.895 372.396 948 373.1 948 373.97C948 374.84 948.895 375.545 950 375.545Z" fill="white" fill-opacity="0.25"/>
<path d="M952 505.45C953.105 505.45 954 504.745 954 503.875C954 503.006 953.105 502.301 952 502.301C950.895 502.301 950 503.006 950 503.875C950 504.745 950.895 505.45 952 505.45Z" fill="white" fill-opacity="0.1"/>
<path d="M377 59.8353C378.105 59.8353 379 59.1303 379 58.2606C379 57.391 378.105 56.686 377 56.686C375.895 56.686 375 57.391 375 58.2606C375 59.1303 375.895 59.8353 377 59.8353Z" fill="white" fill-opacity="0.05"/>
<path d="M738 279.493C739.105 279.493 740 278.788 740 277.919C740 277.049 739.105 276.344 738 276.344C736.895 276.344 736 277.049 736 277.919C736 278.788 736.895 279.493 738 279.493Z" fill="white" fill-opacity="0.05"/>
<path d="M1054 384.992C1055.1 384.992 1056 384.288 1056 383.418C1056 382.548 1055.1 381.843 1054 381.843C1052.9 381.843 1052 382.548 1052 383.418C1052 384.288 1052.9 384.992 1054 384.992Z" fill="white" fill-opacity="0.1"/>
<path d="M1041 75.5813C1042.1 75.5813 1043 74.8764 1043 74.0067C1043 73.1371 1042.1 72.4321 1041 72.4321C1039.9 72.4321 1039 73.1371 1039 74.0067C1039 74.8764 1039.9 75.5813 1041 75.5813Z" fill="white" fill-opacity="0.25"/>
<path d="M813 447.977C814.105 447.977 815 447.272 815 446.402C815 445.533 814.105 444.828 813 444.828C811.895 444.828 811 445.533 811 446.402C811 447.272 811.895 447.977 813 447.977Z" fill="white" fill-opacity="0.15"/>
<path d="M886 101.562C887.105 101.562 888 100.857 888 99.9877C888 99.1181 887.105 98.4131 886 98.4131C884.895 98.4131 884 99.1181 884 99.9877C884 100.857 884.895 101.562 886 101.562Z" fill="white" fill-opacity="0.25"/>
<path d="M58 260.598C59.1046 260.598 60 259.893 60 259.023C60 258.154 59.1046 257.449 58 257.449C56.8954 257.449 56 258.154 56 259.023C56 259.893 56.8954 260.598 58 260.598Z" fill="white" fill-opacity="0.05"/>
<path d="M497 162.972C498.105 162.972 499 162.267 499 161.398C499 160.528 498.105 159.823 497 159.823C495.895 159.823 495 160.528 495 161.398C495 162.267 495.895 162.972 497 162.972Z" fill="white" fill-opacity="0.1"/>
<path d="M1189 80.305C1190.1 80.305 1191 79.6 1191 78.7304C1191 77.8607 1190.1 77.1558 1189 77.1558C1187.9 77.1558 1187 77.8607 1187 78.7304C1187 79.6 1187.9 80.305 1189 80.305Z" fill="white" fill-opacity="0.25"/>
<path d="M558 350.351C559.105 350.351 560 349.646 560 348.776C560 347.907 559.105 347.202 558 347.202C556.895 347.202 556 347.907 556 348.776C556 349.646 556.895 350.351 558 350.351Z" fill="white" fill-opacity="0.1"/>
<path d="M83 451.126C84.1046 451.126 85 450.421 85 449.551C85 448.682 84.1046 447.977 83 447.977C81.8954 447.977 81 448.682 81 449.551C81 450.421 81.8954 451.126 83 451.126Z" fill="white" fill-opacity="0.25"/>
<path d="M919 510.174C920.105 510.174 921 509.469 921 508.599C921 507.729 920.105 507.024 919 507.024C917.895 507.024 917 507.729 917 508.599C917 509.469 917.895 510.174 919 510.174Z" fill="white" fill-opacity="0.25"/>
<path d="M1074 5.51104C1075.1 5.51104 1076 4.80606 1076 3.93643C1076 3.06679 1075.1 2.36182 1074 2.36182C1072.9 2.36182 1072 3.06679 1072 3.93643C1072 4.80606 1072.9 5.51104 1074 5.51104Z" fill="white"/>
<path d="M884 310.199C885.105 310.199 886 309.494 886 308.624C886 307.754 885.105 307.049 884 307.049C882.895 307.049 882 307.754 882 308.624C882 309.494 882.895 310.199 884 310.199Z" fill="white" fill-opacity="0.05"/>
<path d="M535 158.248C536.105 158.248 537 157.543 537 156.674C537 155.804 536.105 155.099 535 155.099C533.895 155.099 533 155.804 533 156.674C533 157.543 533.895 158.248 535 158.248Z" fill="white" fill-opacity="0.1"/>
<path d="M1248 510.961C1249.1 510.961 1250 510.256 1250 509.387C1250 508.517 1249.1 507.812 1248 507.812C1246.9 507.812 1246 508.517 1246 509.387C1246 510.256 1246.9 510.961 1248 510.961Z" fill="white" fill-opacity="0.1"/>
<path d="M746 379.481C747.105 379.481 748 378.776 748 377.907C748 377.037 747.105 376.332 746 376.332C744.895 376.332 744 377.037 744 377.907C744 378.776 744.895 379.481 746 379.481Z" fill="white" fill-opacity="0.25"/>
<path d="M286 313.347C287.105 313.347 288 312.642 288 311.773C288 310.903 287.105 310.198 286 310.198C284.895 310.198 284 310.903 284 311.773C284 312.642 284.895 313.347 286 313.347Z" fill="white" fill-opacity="0.15"/>
<path d="M549 220.446C550.105 220.446 551 219.741 551 218.871C551 218.001 550.105 217.296 549 217.296C547.895 217.296 547 218.001 547 218.871C547 219.741 547.895 220.446 549 220.446Z" fill="white" fill-opacity="0.25"/>
<path d="M175 70.8577C176.105 70.8577 177 70.1527 177 69.2831C177 68.4135 176.105 67.7085 175 67.7085C173.895 67.7085 173 68.4135 173 69.2831C173 70.1527 173.895 70.8577 175 70.8577Z" fill="white" fill-opacity="0.05"/>
<path d="M1370 413.335C1371.1 413.335 1372 412.63 1372 411.761C1372 410.891 1371.1 410.186 1370 410.186C1368.9 410.186 1368 410.891 1368 411.761C1368 412.63 1368.9 413.335 1370 413.335Z" fill="white" fill-opacity="0.05"/>
<path d="M1289 613.311C1290.1 613.311 1291 612.606 1291 611.736C1291 610.867 1290.1 610.162 1289 610.162C1287.9 610.162 1287 610.867 1287 611.736C1287 612.606 1287.9 613.311 1289 613.311Z" fill="white" fill-opacity="0.25"/>
<path d="M294 385.78C295.105 385.78 296 385.075 296 384.205C296 383.335 295.105 382.63 294 382.63C292.895 382.63 292 383.335 292 384.205C292 385.075 292.895 385.78 294 385.78Z" fill="white" fill-opacity="0.25"/>
<path d="M892 647.952C893.105 647.952 894 647.247 894 646.378C894 645.508 893.105 644.803 892 644.803C890.895 644.803 890 645.508 890 646.378C890 647.247 890.895 647.952 892 647.952Z" fill="white" fill-opacity="0.15"/>
<path d="M1238 446.402C1239.1 446.402 1240 445.697 1240 444.828C1240 443.958 1239.1 443.253 1238 443.253C1236.9 443.253 1236 443.958 1236 444.828C1236 445.697 1236.9 446.402 1238 446.402Z" fill="white" fill-opacity="0.1"/>
<path d="M285 422.783C286.105 422.783 287 422.078 287 421.208C287 420.339 286.105 419.634 285 419.634C283.895 419.634 283 420.339 283 421.208C283 422.078 283.895 422.783 285 422.783Z" fill="white" fill-opacity="0.1"/>
<path d="M1145 457.424C1146.1 457.424 1147 456.719 1147 455.85C1147 454.98 1146.1 454.275 1145 454.275C1143.9 454.275 1143 454.98 1143 455.85C1143 456.719 1143.9 457.424 1145 457.424Z" fill="white" fill-opacity="0.25"/>
<path d="M394 461.361C395.105 461.361 396 460.656 396 459.786C396 458.916 395.105 458.211 394 458.211C392.895 458.211 392 458.916 392 459.786C392 460.656 392.895 461.361 394 461.361Z" fill="white" fill-opacity="0.15"/>
<path d="M50 122.033C51.1046 122.033 52 121.328 52 120.458C52 119.588 51.1046 118.883 50 118.883C48.8954 118.883 48 119.588 48 120.458C48 121.328 48.8954 122.033 50 122.033Z" fill="white" fill-opacity="0.05"/>
<path d="M386 130.693C387.105 130.693 388 129.988 388 129.118C388 128.248 387.105 127.543 386 127.543C384.895 127.543 384 128.248 384 129.118C384 129.988 384.895 130.693 386 130.693Z" fill="white"/>
<path d="M781 259.811C782.105 259.811 783 259.106 783 258.236C783 257.367 782.105 256.662 781 256.662C779.895 256.662 779 257.367 779 258.236C779 259.106 779.895 259.811 781 259.811Z" fill="white" fill-opacity="0.15"/>
<path d="M497 210.998C498.105 210.998 499 210.293 499 209.423C499 208.554 498.105 207.849 497 207.849C495.895 207.849 495 208.554 495 209.423C495 210.293 495.895 210.998 497 210.998Z" fill="white" fill-opacity="0.25"/>
<path d="M61 58.2607L61.5657 59.3899L63 59.8354L61.5657 60.2808L61 61.41L60.4343 60.2808L59 59.8354L60.4343 59.3899L61 58.2607Z" fill="white" fill-opacity="0.25"/>
<path d="M452 317.284L452.565 318.414L454 318.859L452.565 319.304L452 320.433L451.435 319.304L450 318.859L451.435 318.414L452 317.284Z" fill="white" fill-opacity="0.15"/>
<path d="M33 136.991L33.5656 138.121L35 138.566L33.5656 139.011L33 140.14L32.4343 139.011L31 138.566L32.4343 138.121L33 136.991Z" fill="white" fill-opacity="0.1"/>
<path d="M338 377.119L338.567 378.248L340 378.694L338.567 379.139L338 380.268L337.435 379.139L336 378.694L337.435 378.248L338 377.119Z" fill="white" fill-opacity="0.25"/>
<path d="M383 277.919L383.565 279.048L385 279.494L383.565 279.94L383 281.068L382.435 279.94L381 279.494L382.435 279.048L383 277.919Z" fill="white" fill-opacity="0.15"/>
<path d="M1025 77.1558L1025.57 78.2851L1027 78.7304L1025.57 79.1758L1025 80.305L1024.43 79.1758L1023 78.7304L1024.43 78.2851L1025 77.1558Z" fill="white" fill-opacity="0.15"/>
<path d="M1280 636.93L1280.56 638.059L1282 638.505L1280.56 638.95L1280 640.079L1279.43 638.95L1278 638.505L1279.43 638.059L1280 636.93Z" fill="white" fill-opacity="0.05"/>
<path d="M856 109.436L856.565 110.564L858 111.01L856.565 111.455L856 112.585L855.435 111.455L854 111.01L855.435 110.564L856 109.436Z" fill="white" fill-opacity="0.1"/>
<path d="M1308 43.3018L1308.57 44.431L1310 44.8764L1308.57 45.3217L1308 46.451L1307.44 45.3217L1306 44.8764L1307.44 44.431L1308 43.3018Z" fill="white" fill-opacity="0.25"/>
<path d="M687 204.699L687.565 205.828L689 206.274L687.565 206.719L687 207.848L686.433 206.719L685 206.274L686.433 205.828L687 204.699Z" fill="white" fill-opacity="0.1"/>
<path d="M1389 638.504L1389.56 639.634L1391 640.079L1389.56 640.524L1389 641.654L1388.43 640.524L1387 640.079L1388.43 639.634L1389 638.504Z" fill="white" fill-opacity="0.1"/>
<path d="M404 193.677L404.565 194.806L406 195.252L404.565 195.697L404 196.826L403.435 195.697L402 195.252L403.435 194.806L404 193.677Z" fill="white" fill-opacity="0.25"/>
<path d="M876 654.25L876.567 655.379L878 655.825L876.567 656.27L876 657.4L875.435 656.27L874 655.825L875.435 655.379L876 654.25Z" fill="white" fill-opacity="0.15"/>
<path d="M202 351.138L202.567 352.268L204 352.713L202.567 353.159L202 354.287L201.435 353.159L200 352.713L201.435 352.268L202 351.138Z" fill="white" fill-opacity="0.25"/>
<path d="M1348 210.998L1348.57 212.128L1350 212.573L1348.57 213.019L1348 214.147L1347.44 213.019L1346 212.573L1347.44 212.128L1348 210.998Z" fill="white" fill-opacity="0.25"/>
<path d="M942 351.925L942.565 353.055L944 353.5L942.565 353.946L942 355.075L941.435 353.946L940 353.5L941.435 353.055L942 351.925Z" fill="white" fill-opacity="0.1"/>
<path d="M943 58.2607L943.565 59.3901L945 59.8354L943.565 60.2808L943 61.41L942.435 60.2808L941 59.8354L942.435 59.3901L943 58.2607Z" fill="white" fill-opacity="0.05"/>
<path d="M246 313.348L246.567 314.477L248 314.922L246.567 315.367L246 316.497L245.435 315.367L244 314.922L245.435 314.477L246 313.348Z" fill="white" fill-opacity="0.05"/>
<path d="M1403 170.845L1403.57 171.975L1405 172.42L1403.57 172.865L1403 173.994L1402.44 172.865L1401 172.42L1402.44 171.975L1403 170.845Z" fill="white" fill-opacity="0.25"/>
<path d="M402 388.142L402.565 389.271L404 389.716L402.565 390.161L402 391.291L401.435 390.161L400 389.716L401.435 389.271L402 388.142Z" fill="white" fill-opacity="0.15"/>
<path d="M1395 512.536L1395.57 513.664L1397 514.11L1395.57 514.555L1395 515.685L1394.44 514.555L1393 514.11L1394.44 513.664L1395 512.536Z" fill="white" fill-opacity="0.1"/>
<path d="M1375 389.716L1375.57 390.845L1377 391.291L1375.57 391.736L1375 392.866L1374.44 391.736L1373 391.291L1374.44 390.845L1375 389.716Z" fill="white" fill-opacity="0.05"/>
<path d="M1124 651.889L1124.56 653.018L1126 653.463L1124.56 653.908L1124 655.038L1123.43 653.908L1122 653.463L1123.43 653.018L1124 651.889Z" fill="white" fill-opacity="0.25"/>
<path d="M649 412.548C650.105 412.548 651 411.843 651 410.974C651 410.104 650.105 409.399 649 409.399C647.895 409.399 647 410.104 647 410.974C647 411.843 647.895 412.548 649 412.548Z" fill="white" fill-opacity="0.1"/>
<path d="M921 267.684C922.105 267.684 923 266.979 923 266.109C923 265.24 922.105 264.535 921 264.535C919.895 264.535 919 265.24 919 266.109C919 266.979 919.895 267.684 921 267.684Z" fill="white" fill-opacity="0.15"/>
<path d="M823 425.932C824.105 425.932 825 425.227 825 424.357C825 423.488 824.105 422.783 823 422.783C821.895 422.783 821 423.488 821 424.357C821 425.227 821.895 425.932 823 425.932Z" fill="white" fill-opacity="0.15"/>
<path d="M1239 684.955C1240.1 684.955 1241 684.25 1241 683.381C1241 682.511 1240.1 681.806 1239 681.806C1237.9 681.806 1237 682.511 1237 683.381C1237 684.25 1237.9 684.955 1239 684.955Z" fill="white" fill-opacity="0.25"/>
<path d="M1211 494.428C1212.1 494.428 1213 493.723 1213 492.853C1213 491.983 1212.1 491.278 1211 491.278C1209.9 491.278 1209 491.983 1209 492.853C1209 493.723 1209.9 494.428 1211 494.428Z" fill="white" fill-opacity="0.15"/>
<path d="M32 7.87334C33.1046 7.87334 34 7.16836 34 6.29873C34 5.4291 33.1046 4.72412 32 4.72412C30.8954 4.72412 30 5.4291 30 6.29873C30 7.16836 30.8954 7.87334 32 7.87334Z" fill="white" fill-opacity="0.25"/>
<path d="M234 79.5179C235.105 79.5179 236 78.8129 236 77.9433C236 77.0736 235.105 76.3687 234 76.3687C232.895 76.3687 232 77.0736 232 77.9433C232 78.8129 232.895 79.5179 234 79.5179Z" fill="white" fill-opacity="0.25"/>
<path d="M797 681.806C798.105 681.806 799 681.101 799 680.232C799 679.362 798.105 678.657 797 678.657C795.895 678.657 795 679.362 795 680.232C795 681.101 795.895 681.806 797 681.806Z" fill="white" fill-opacity="0.25"/>
<path d="M644 519.621C645.105 519.621 646 518.916 646 518.047C646 517.177 645.105 516.472 644 516.472C642.895 516.472 642 517.177 642 518.047C642 518.916 642.895 519.621 644 519.621Z" fill="white" fill-opacity="0.05"/>
<path d="M980 596.778C981.105 596.778 982 596.073 982 595.203C982 594.333 981.105 593.628 980 593.628C978.895 593.628 978 594.333 978 595.203C978 596.073 978.895 596.778 980 596.778Z" fill="white" fill-opacity="0.05"/>
<path d="M980 249.576C981.105 249.576 982 248.871 982 248.001C982 247.132 981.105 246.427 980 246.427C978.895 246.427 978 247.132 978 248.001C978 248.871 978.895 249.576 980 249.576Z" fill="white" fill-opacity="0.15"/>
<path d="M1173 181.867C1174.1 181.867 1175 181.163 1175 180.293C1175 179.423 1174.1 178.718 1173 178.718C1171.9 178.718 1171 179.423 1171 180.293C1171 181.163 1171.9 181.867 1173 181.867Z" fill="white" fill-opacity="0.15"/>
<path d="M600 58.2605C601.105 58.2605 602 57.5556 602 56.6859C602 55.8163 601.105 55.1113 600 55.1113C598.895 55.1113 598 55.8163 598 56.6859C598 57.5556 598.895 58.2605 600 58.2605Z" fill="white" fill-opacity="0.05"/>
<path d="M627 655.825C628.105 655.825 629 655.121 629 654.251C629 653.381 628.105 652.676 627 652.676C625.895 652.676 625 653.381 625 654.251C625 655.121 625.895 655.825 627 655.825Z" fill="white" fill-opacity="0.25"/>
<path d="M437 588.117C438.105 588.117 439 587.412 439 586.542C439 585.673 438.105 584.968 437 584.968C435.895 584.968 435 585.673 435 586.542C435 587.412 435.895 588.117 437 588.117Z" fill="white" fill-opacity="0.15"/>
<path d="M926 150.375C927.105 150.375 928 149.67 928 148.801C928 147.931 927.105 147.226 926 147.226C924.895 147.226 924 147.931 924 148.801C924 149.67 924.895 150.375 926 150.375Z" fill="white" fill-opacity="0.25"/>
<path d="M78 616.46L80 619.609H76L78 616.46Z" fill="white" fill-opacity="0.25"/>
<path d="M897 525.133L899 528.282H895L897 525.133Z" fill="white"/>
<path d="M1050.01 16.5337L1052 19.6829H1048L1050.01 16.5337Z" fill="white" fill-opacity="0.05"/>
<path d="M1233.99 7.87305L1236 11.0223H1232L1233.99 7.87305Z" fill="white" fill-opacity="0.25"/>
<path d="M315 32.2798L317 35.429H313L315 32.2798Z" fill="white" fill-opacity="0.25"/>
<path d="M791 42.5146L793 45.6639H789L791 42.5146Z" fill="white" fill-opacity="0.1"/>
<path d="M1249.99 71.645L1252 74.7942H1248L1249.99 71.645Z" fill="white" fill-opacity="0.25"/>
<path d="M547 59.8354L549 62.9847H545L547 59.8354Z" fill="white" fill-opacity="0.15"/>
<path d="M491 491.278L493 494.428H489L491 491.278Z" fill="white" fill-opacity="0.25"/>
<path d="M114 634.568L116 637.717H112L114 634.568Z" fill="white" fill-opacity="0.15"/>
<path d="M285.999 331.456L288 334.605H284L285.999 331.456Z" fill="white" fill-opacity="0.15"/>
<path d="M689 199.976L691 203.125H687L689 199.976Z" fill="white" fill-opacity="0.25"/>
<path d="M1150.01 464.51L1152 467.659H1148L1150.01 464.51Z" fill="white"/>
<path d="M1021 391.291L1023 394.44H1019L1021 391.291Z" fill="white" fill-opacity="0.05"/>
<path d="M486 3.14941L488 6.29863H484L486 3.14941Z" fill="white" fill-opacity="0.25"/>
<path d="M785 4.72412L787 7.87334H783L785 4.72412Z" fill="white" fill-opacity="0.15"/>
<path d="M797 669.209L799 672.359H795L797 669.209Z" fill="white" fill-opacity="0.05"/>
<path d="M1263 82.667L1265 85.8162H1261L1263 82.667Z" fill="white" fill-opacity="0.1"/>
<path d="M342 269.258L344 272.408H340L342 269.258Z" fill="white" fill-opacity="0.1"/>
<path d="M734 578.669L736 581.819H732L734 578.669Z" fill="white" fill-opacity="0.1"/>
<path d="M1038.99 310.198L1041 313.347H1037L1038.99 310.198Z" fill="white" fill-opacity="0.15"/>
<path d="M363 143.29L365 146.439H361L363 143.29Z" fill="white" fill-opacity="0.1"/>
<path d="M697 587.33L699 590.479H695L697 587.33Z" fill="white" fill-opacity="0.15"/>
<path d="M248 450.338L250 453.488H246L248 450.338Z" fill="white" fill-opacity="0.1"/>
<path d="M791 447.977L793 451.126H789L791 447.977Z" fill="white"/>
<path d="M627 120.458L629 123.607H625L627 120.458Z" fill="white" fill-opacity="0.25"/>
<path d="M428 549.539L430 552.688H426L428 549.539Z" fill="white" fill-opacity="0.1"/>
<path d="M375 614.098L377 617.247H373L375 614.098Z" fill="white" fill-opacity="0.15"/>
<path d="M314 447.977L316 451.126H312L314 447.977Z" fill="white" fill-opacity="0.25"/>
<path d="M235 120.458L237 123.607H233L235 120.458Z" fill="white" fill-opacity="0.1"/>
<path d="M780 656.613L782 659.762H778L780 656.613Z" fill="white" fill-opacity="0.05"/>
</svg>
