<svg width="32" height="33" viewBox="0 0 32 33" fill="none" xmlns="http://www.w3.org/2000/svg">
<g id="basil:gmail-solid">
<path id="Vector" fill-rule="evenodd" clip-rule="evenodd" d="M8.94939 5.79333C13.6405 5.3739 18.3596 5.3739 23.0507 5.79333L25.0747 5.97466C26.0546 6.06215 26.9763 6.47743 27.6909 7.1534C28.4056 7.82937 28.8715 8.72656 29.0134 9.7C29.6726 14.2094 29.6726 18.7906 29.0134 23.3C28.8713 24.2732 28.4052 25.1701 27.6906 25.8458C26.9759 26.5215 26.0544 26.9366 25.0747 27.024L23.0507 27.2053C18.3596 27.6248 13.6405 27.6248 8.94939 27.2053L6.92539 27.024C5.94577 26.9366 5.02421 26.5215 4.30955 25.8458C3.59489 25.1701 3.12886 24.2732 2.98673 23.3C2.3275 18.7906 2.3275 14.2094 2.98673 9.7C3.12859 8.72656 3.5945 7.82937 4.30918 7.1534C5.02386 6.47743 5.94557 6.06215 6.92539 5.97466L8.94939 5.79333ZM7.80806 9.62C7.65574 9.53785 7.4847 9.49664 7.31168 9.5004C7.13865 9.50415 6.96957 9.55275 6.82095 9.64144C6.67234 9.73012 6.54929 9.85586 6.46383 10.0063C6.37836 10.1568 6.33342 10.3269 6.33339 10.5V23.1667C6.33339 23.4319 6.43875 23.6862 6.62629 23.8738C6.81382 24.0613 7.06818 24.1667 7.33339 24.1667C7.59861 24.1667 7.85296 24.0613 8.0405 23.8738C8.22804 23.6862 8.33339 23.4319 8.33339 23.1667V12.1747L15.5254 16.0467C15.8214 16.2067 16.1787 16.2067 16.4747 16.0467L23.6667 12.1747V23.1667C23.6667 23.4319 23.7721 23.6862 23.9596 23.8738C24.1472 24.0613 24.4015 24.1667 24.6667 24.1667C24.9319 24.1667 25.1863 24.0613 25.3738 23.8738C25.5614 23.6862 25.6667 23.4319 25.6667 23.1667V10.5C25.6667 10.3269 25.6218 10.1568 25.5363 10.0063C25.4508 9.85586 25.3278 9.73012 25.1792 9.64144C25.0306 9.55275 24.8615 9.50415 24.6884 9.5004C24.5154 9.49664 24.3444 9.53785 24.1921 9.62L16.0001 14.0307L7.80806 9.62Z" fill="#F8F8F8"/>
</g>
</svg>
