<svg width="32" height="33" viewBox="0 0 32 33" fill="none" xmlns="http://www.w3.org/2000/svg">
<g id="Img">
<path id="Vector" d="M23.0254 4.42544C20.8802 3.14182 18.5403 2.5 15.9989 2.5C13.4597 2.5 11.1176 3.14182 8.97146 4.42544C6.82856 5.70794 5.1293 7.4489 3.878 9.64716C2.62456 11.8477 2 14.2472 2 16.8513C2 19.9777 2.89054 22.7886 4.67056 25.2866C6.45058 27.78 8.74964 29.5132 11.5699 30.4692C11.8972 30.5318 12.1406 30.4882 12.2978 30.3384C12.4561 30.1874 12.5347 30.003 12.5347 29.7792L12.5261 28.7674C12.5197 28.1322 12.5153 27.5788 12.5153 27.1046L12.0975 27.1784C11.8305 27.2288 11.4923 27.25 11.0853 27.2434C10.6793 27.2378 10.2561 27.1942 9.81894 27.1126C9.38498 27.032 8.979 26.8464 8.6021 26.5534C8.22522 26.2604 7.95816 25.877 7.79986 25.404L7.6168 24.9724C7.4962 24.6862 7.30452 24.3686 7.04392 24.022C6.78224 23.6708 6.51842 23.4338 6.25136 23.3098L6.12214 23.217C6.03816 23.1542 5.96062 23.0804 5.88524 22.9932C5.8131 22.906 5.75924 22.8188 5.72372 22.7316C5.6871 22.6422 5.71618 22.5718 5.8131 22.5158C5.91 22.4576 6.0866 22.432 6.34074 22.432L6.70686 22.4878C6.94808 22.537 7.2496 22.687 7.60818 22.9352C7.96678 23.1856 8.26182 23.5088 8.4912 23.908C8.77118 24.4178 9.10822 24.807 9.50342 25.0752C9.89862 25.3436 10.2971 25.4778 10.6987 25.4778C11.0971 25.4778 11.445 25.4442 11.7368 25.3838C12.0275 25.3212 12.3021 25.2274 12.5552 25.1044C12.6672 24.268 12.9644 23.6262 13.449 23.1778C12.7576 23.1018 12.1352 22.99 11.5828 22.84C11.0293 22.6914 10.4586 22.4488 9.87062 22.111C9.27836 21.7756 8.79056 21.3596 8.40182 20.8588C8.01416 20.3645 7.69434 19.7071 7.44666 18.902C7.19898 18.0891 7.073 17.1577 7.073 16.0977C7.073 14.5916 7.55112 13.3079 8.51166 12.2479C8.06154 11.1142 8.10246 9.84394 8.64088 8.4351C8.99084 8.32328 9.51312 8.40714 10.2066 8.68668C10.899 8.9662 11.4051 9.2066 11.7271 9.40452C12.0501 9.60578 12.3086 9.7735 12.5024 9.90992C13.6299 9.59236 14.795 9.43248 15.9989 9.43248C17.2028 9.43248 18.368 9.5946 19.4987 9.91774L20.191 9.46826C20.6648 9.1697 21.2248 8.898 21.8688 8.64642C22.5148 8.3982 23.008 8.32998 23.3484 8.4418C23.8944 9.85066 23.9438 11.1197 23.4938 12.2547C24.4522 13.3124 24.9324 14.596 24.9324 16.1033C24.9324 17.1611 24.8074 18.0992 24.5588 18.9154C24.311 19.7317 23.988 20.3891 23.5918 20.88C23.1976 21.372 22.7066 21.7856 22.1164 22.1234C21.5274 22.4588 20.9534 22.7014 20.4042 22.8502C19.8508 23 19.2305 23.1118 18.5349 23.1856C19.167 23.7446 19.4825 24.628 19.4825 25.839V29.7826C19.4825 30.0062 19.5579 30.1918 19.7108 30.3416C19.8615 30.4904 20.1016 30.5352 20.4302 30.4726C23.2514 29.511 25.5494 27.7846 27.3294 25.2844C29.1094 22.7908 30 19.9765 30 16.8513C30 14.2483 29.3732 11.8477 28.122 9.64828C26.8696 7.45 25.1714 5.70906 23.0286 4.42656L23.0254 4.42544Z" fill="#F5F5F5"/>
</g>
</svg>
