<svg width="40" height="41" viewBox="0 0 40 41" fill="none" xmlns="http://www.w3.org/2000/svg">
<path id="Vector" d="M37.7778 0.800781H2.22222C1.63285 0.800781 1.06762 1.03491 0.650874 1.45165C0.234126 1.8684 0 2.43363 0 3.023V38.5786C0 39.1679 0.234126 39.7332 0.650874 40.1499C1.06762 40.5667 1.63285 40.8008 2.22222 40.8008H37.7778C38.3671 40.8008 38.9324 40.5667 39.3491 40.1499C39.7659 39.7332 40 39.1679 40 38.5786V3.023C40 2.43363 39.7659 1.8684 39.3491 1.45165C38.9324 1.03491 38.3671 0.800781 37.7778 0.800781ZM11.8644 34.883H5.92667V15.7941H11.8644V34.883ZM8.89556 13.1874C7.98321 13.1874 7.10823 12.825 6.46311 12.1799C5.81798 11.5348 5.45556 10.6598 5.45556 9.74745C5.45556 8.8351 5.81798 7.96013 6.46311 7.315C7.10823 6.66988 7.98321 6.30745 8.89556 6.30745C9.8079 6.30745 10.6829 6.66988 11.328 7.315C11.9731 7.96013 12.3356 8.8351 12.3356 9.74745C12.3356 10.6598 11.9731 11.5348 11.328 12.1799C10.6829 12.825 9.8079 13.1874 8.89556 13.1874ZM34.0844 34.883H28.1533V25.6008C28.1533 23.3874 28.1133 20.5408 25.0689 20.5408C21.98 20.5408 21.5111 22.9541 21.5111 25.4452V34.8852H15.5844V15.7963H21.2733V18.4052H21.3556C22.1444 16.9052 24.0822 15.323 26.9644 15.323C32.9733 15.323 34.0822 19.2741 34.0822 24.4163L34.0844 34.883Z" fill="white"/>
</svg>
