<svg width="26" height="26" viewBox="0 0 26 26" fill="none" xmlns="http://www.w3.org/2000/svg">
<g clip-path="url(#clip0_311_474)">
<path d="M19.5 12.4C19.7 12.7 19.9 13 20 13.5H16.8C16.8 13.4 16.8 13.2 16.9 13C17 12.8 17 12.7 17.2 12.5C17.3 12.3 17.5 12.2 17.7 12.1C17.9 12 18.2 11.9 18.5 11.9C18.9 12 19.3 12.1 19.5 12.4ZM10.3 11.7C10.5 11.5 10.7 11.2 10.7 10.8C10.7 10.6 10.7 10.4 10.6 10.2C10.5 10.1 10.4 9.9 10.3 9.9C10.2 9.8 10 9.8 9.8 9.7H7.2V12H9.4C9.7 12 10 11.9 10.3 11.7ZM9.5 13.4H7.2V16.1H9.5C9.7 16.1 9.9 16.1 10.1 16C10.3 16 10.5 15.9 10.6 15.8C10.7 15.7 10.9 15.6 11 15.4C11.1 15.2 11.1 15 11.1 14.8C11.1 14.3 11 13.9 10.7 13.7C10.4 13.5 10 13.4 9.5 13.4ZM26 4.9V21.1C26 23.8 23.8 26 21.1 26H4.9C2.2 26 0 23.8 0 21.1V4.9C0 2.2 2.2 0 4.9 0H21.1C23.8 0 26 2.2 26 4.9ZM16.4 9.6H20.4V8.6H16.4V9.6ZM13.2 15C13.2 14.4 13.1 13.9 12.8 13.4C12.5 13 12.1 12.7 11.5 12.5C11.9 12.3 12.3 12 12.5 11.7C12.7 11.4 12.8 11 12.8 10.5C12.8 10 12.7 9.7 12.6 9.3C12.4 9 12.2 8.7 12 8.6C11.7 8.4 11.4 8.3 11 8.2C10.5 8 10.1 8 9.6 8H5V17.8H9.8C10.2 17.8 10.7 17.7 11.1 17.6C11.5 17.5 11.9 17.3 12.2 17.1C12.5 16.9 12.8 16.6 13 16.2C13.1 15.9 13.2 15.5 13.2 15ZM16.8 14.7H21.9C21.9 14.1 21.9 13.6 21.8 13.1C21.7 12.6 21.5 12.1 21.2 11.8C20.9 11.4 20.5 11.1 20.1 10.9C19.6 10.7 19.1 10.5 18.5 10.5C18 10.5 17.5 10.6 17 10.8C16.6 11 16.2 11.3 15.8 11.6C15.5 11.9 15.2 12.3 15.1 12.8C14.9 13.3 14.8 13.8 14.8 14.3C14.8 14.8 14.9 15.4 15.1 15.8C15.3 16.3 15.5 16.7 15.8 17C16.1 17.3 16.5 17.6 16.9 17.8C17.4 18 17.9 18.1 18.4 18.1C19.2 18.1 19.9 17.9 20.5 17.5C21.1 17.1 21.5 16.5 21.8 15.7H20.1C20 15.9 19.9 16.1 19.6 16.3C19.3 16.5 19 16.6 18.6 16.6C18.1 16.6 17.6 16.5 17.3 16.2C17 15.8 16.8 15.3 16.8 14.7Z" fill="#F8F8F8"/>
</g>
<defs>
<clipPath id="clip0_311_474">
<rect width="26" height="26" fill="white"/>
</clipPath>
</defs>
</svg>
